<?xml version="1.0" encoding="utf-8"?>
<!-- Generator: Adobe Illustrator 20.0.0, SVG Export Plug-In . SVG Version: 6.00 Build 0)  -->
<!DOCTYPE svg PUBLIC "-//W3C//DTD SVG 1.1//EN" "http://www.w3.org/Graphics/SVG/1.1/DTD/svg11.dtd">
<svg version="1.1" id="Layer_1" xmlns="http://www.w3.org/2000/svg" xmlns:xlink="http://www.w3.org/1999/xlink" x="0px" y="0px"
	 viewBox="0 0 300 300" style="enable-background:new 0 0 300 300;" xml:space="preserve">
<style type="text/css">
	.st0{fill:#FFFFFF;}
	.st1{fill:#95D600;}
</style>
<circle class="st0" cx="151" cy="153.8" r="144.1"/>
<g>
	<path class="st1" d="M230.4,135V85.3c0-5.3-4.3-9.6-9.6-9.6H82.5c-5.3,0-9.6,4.3-9.6,9.6v138.3c0,5.3,4.3,9.6,9.6,9.6h138.3
		c5.3,0,9.6-4.3,9.6-9.6V135C230.4,135,230.4,135,230.4,135C230.4,135,230.4,135,230.4,135z M208.1,80.6h12.7c2.6,0,4.7,2.1,4.7,4.7
		v6.9c-0.9,0-1.6,0.6-1.8,1.4l-0.9,4.3h-14.6V80.6z M225.5,103.2v22.4h-4.6L225.5,103.2z M208.1,100.5h14.1l-5.2,25.1h-9V100.5z
		 M206.3,148.2c0.8,0.1,1.7-0.2,2.2-0.8l5.3-6.2l-1.1,5.2l-4.8,5.1l-4-1.9c-0.8-0.4-1.7-0.2-2.3,0.5l-6.8,8.8l-0.5-2.7
		c0.2-0.1,0.4-0.3,0.5-0.5l5.4-15.5L206.3,148.2z M212.7,135.4c-0.4,0.1-0.7,0.4-1,0.7l-3.6,4.2v-12.2h8.4l-1.3,6.3L212.7,135.4z
		 M205.6,143.1l-5.5-8.1c-0.9-0.1-1.8,0.3-2.3,1l-4.8,12.8l-3.9-20.6h16.6V143.1z M185.3,128.1l4.3,22.7l-3-0.9l-6.9-1.6
		c-0.5-0.1-1-0.1-1.4,0.1l2.9-20.3H185.3z M181.6,125.6l1.4-9.7l1.8,9.7H181.6z M152.9,80.6h52.7V98h-52.7V80.6z M152.9,100.5h52.7
		v25.1h-17l-4.1-21.4c-0.2-0.9-1-1.5-1.9-1.5c-0.9,0-1.7,0.7-1.8,1.6l-3.1,21.3h-24.9V100.5z M160.8,170.4l5.6-14.1l4.4,5.9
		c0.5,0.4,1.1,0.6,1.7,0.5l-0.5,3.7l-3.1-2.9c-0.5-0.4-1.1-0.6-1.7-0.5c-0.6,0.2-1.1,0.6-1.3,1.2l-3.8,11.5l-1.9-4.6
		C160.4,171,160.6,170.7,160.8,170.4z M157.7,165.1l-3.9-9.5h7.6L157.7,165.1z M171.8,156.7l-4.8-6.2c-0.6-0.5-1.4-0.6-2.1-0.5
		c-0.7,0.2-1.3,0.7-1.7,1.3l-0.7,1.9h-9.5v-25.1h24.6l-3.7,25.9L171.8,156.7z M152.3,161.7l1,2.4l-0.5-0.3c-0.3-0.1-0.7-0.2-1-0.2
		L152.3,161.7z M97.7,80.6h52.7V98H97.7V80.6z M97.7,100.5h52.7v25.1H97.7V100.5z M97.7,128.1h52.7v25.1h-44.1l-0.9-6.1
		c-0.1-0.9-0.9-1.6-1.9-1.6c-0.9,0-1.7,0.7-1.8,1.6l-0.8,6.1h-3.2V128.1z M144.2,169.3l-5.5-2.1c-1.1-0.4-2.4,0-3,1l-5.9,9.5l-5-1.7
		c-0.9-0.3-1.9-0.1-2.5,0.6l-5.9,5.9l-5.1-1l-0.9-1.8l-3.7-24.1h43.5l-3.3,11.3L144.2,169.3z M144.7,174.6l-1.4,4.7l-3.2-1.7
		c-0.5-0.3-1.1-0.3-1.7-0.1c-0.5,0.2-0.9,0.7-1,1.3l-6.2,27.9l-5.2-19.3c-0.2-0.7-0.7-1.2-1.4-1.3c-0.7-0.2-1.4,0.1-1.8,0.6
		l-4.8,5.7l-5.9-1.1l-0.7-4.7l5.3,1c0.8,0.2,1.6-0.1,2.2-0.7l5.8-5.7l5.4,1.8c1.1,0.4,2.3-0.1,2.9-1.1l5.8-9.4l5,1.9
		C144.1,174.6,144.4,174.6,144.7,174.6z M105.1,170l-0.2-0.4c-0.7-0.5-1.5-0.6-2.3-0.3l1.1-8.5L105.1,170z M100.6,155.7L98,176.4
		l-0.3,0.5v-21.2H100.6z M95.2,180.7C95.1,180.7,95.1,180.8,95.2,180.7l-17.4,0.1v-25.1h17.4V180.7z M93.1,183.3l-5,7.1l-5.7,2.1
		h-4.6v-9.2H93.1z M77.8,85.3c0-2.6,2.1-4.7,4.7-4.7h12.7V98H77.8V85.3z M77.8,100.5h17.4v25.1H77.8V100.5z M77.8,128.1h17.4v25.1
		H77.8V128.1z M77.8,197.5h5c0.3,0,0.6-0.1,0.9-0.2l6.9-2.5c0.5-0.2,0.9-0.5,1.2-0.9l4.9-7l-0.7,5.4l-4.1,6.5l-9.5,2.9
		c-0.5,0.2-0.9,0.5-1.2,1l-3.5,8V197.5z M220.8,228.3H82.5c-2.6,0-4.7-2.1-4.7-4.7v-3.9c0.2-0.2,0.3-0.4,0.4-0.6l6.1-14.1l9.3-2.9
		c0.4-0.1,0.8-0.4,1-0.8l4.7-7.4c0.1-0.2,0.2-0.5,0.3-0.8l1.9-15.1l1.8-3.5l3.7,7.5l1.7,11.2c0.1,0.8,0.7,1.4,1.5,1.5l8.2,1.6
		c0.7,0.1,1.3-0.1,1.8-0.6l3.2-3.8l6.2,23.2c0.2,0.8,1,1.3,1.8,1.4c0.9,0,1.6-0.6,1.8-1.5l7.3-33l3,1.6c0.5,0.3,1.1,0.3,1.6,0.1
		c0.5-0.2,0.9-0.7,1.1-1.2l3.3-11.3l2.5-2.3l4,1.9l4.5,10.9c0.3,0.7,1,1.2,1.8,1.2c0.8,0,1.5-0.5,1.7-1.3l4.5-13.5l3.5,3.4
		c0.5,0.5,1.2,0.6,1.9,0.4c0.7-0.2,1.1-0.8,1.2-1.5l1.8-12.5l3.3-4.6l5.1,1.2l5.3,1.5l1.4,7.6c0.1,0.7,0.7,1.3,1.4,1.5
		c0.7,0.2,1.5-0.1,1.9-0.7l8.4-10.9l3.9,1.8c0.7,0.4,1.6,0.2,2.2-0.4l6.1-6.5c0.2-0.2,0.4-0.6,0.5-0.9l1.9-9.2l2.7-1.1h4.5v86.1h0
		C225.5,226.2,223.4,228.3,220.8,228.3z M225.5,132.5L225.5,132.5h-5c-0.3,0-0.6,0.1-0.9,0.2l-0.1,0.1l1-4.7h5.1V132.5z"/>
</g>
</svg>
