<?xml version="1.0" encoding="utf-8"?>
<!-- Generator: Adobe Illustrator 20.0.0, SVG Export Plug-In . SVG Version: 6.00 Build 0)  -->
<!DOCTYPE svg PUBLIC "-//W3C//DTD SVG 1.1//EN" "http://www.w3.org/Graphics/SVG/1.1/DTD/svg11.dtd">
<svg version="1.1" id="Layer_1" xmlns="http://www.w3.org/2000/svg" xmlns:xlink="http://www.w3.org/1999/xlink" x="0px" y="0px"
	 viewBox="0 0 300 300" style="enable-background:new 0 0 300 300;" xml:space="preserve">
<style type="text/css">
	.st0{fill:#FFFFFF;}
	.st1{fill:#95D600;}
</style>
<circle class="st0" cx="151" cy="153.8" r="144.1"/>
<path class="st1" d="M85.2,223.5h34.3c0.8,0,1.4-0.6,1.4-1.4c0-0.8-0.6-1.4-1.4-1.4H85.2c-0.8,0-1.4,0.6-1.4,1.4
	C83.8,222.9,84.4,223.5,85.2,223.5z M213.7,87.1c-2.2,0-3.9,1.8-3.9,3.9c0,2.2,1.8,3.9,3.9,3.9c2.2,0,3.9-1.8,3.9-3.9
	C217.7,88.9,215.9,87.1,213.7,87.1z M219.8,75.3H82.2c-5.4,0-9.7,4.4-9.7,9.7v137.5c0,5.4,4.4,9.7,9.7,9.7h137.5
	c5.4,0,9.7-4.4,9.7-9.7V85.1C229.5,79.7,225.1,75.3,219.8,75.3z M224.6,222.6c0,2.7-2.2,4.9-4.9,4.9H82.2c-2.7,0-4.9-2.2-4.9-4.9
	v-6.2h147.3V222.6z M224.6,212.3H77.4V105.2h147.3V212.3z M224.6,101.2H77.4V85.1c0-2.7,2.2-4.9,4.9-4.9h137.5
	c2.7,0,4.9,2.2,4.9,4.9V101.2z M188,87.1c-2.2,0-3.9,1.8-3.9,3.9c0,2.2,1.8,3.9,3.9,3.9s3.9-1.8,3.9-3.9
	C191.9,88.9,190.2,87.1,188,87.1z M200.9,87.1c-2.2,0-3.9,1.8-3.9,3.9c0,2.2,1.8,3.9,3.9,3.9c2.2,0,3.9-1.8,3.9-3.9
	C204.8,88.9,203,87.1,200.9,87.1z"/>
</svg>
