<?xml version="1.0" encoding="utf-8"?>
<!-- Generator: Adobe Illustrator 20.0.0, SVG Export Plug-In . SVG Version: 6.00 Build 0)  -->
<!DOCTYPE svg PUBLIC "-//W3C//DTD SVG 1.1//EN" "http://www.w3.org/Graphics/SVG/1.1/DTD/svg11.dtd">
<svg version="1.1" id="Layer_1" xmlns="http://www.w3.org/2000/svg" xmlns:xlink="http://www.w3.org/1999/xlink" x="0px" y="0px"
	 viewBox="0 0 300 300" style="enable-background:new 0 0 300 300;" xml:space="preserve">
<style type="text/css">
	.st0{fill:#FFFFFF;}
	.st1{fill:#95D600;}
</style>
<circle class="st0" cx="149.5" cy="150" r="144.1"/>
<g>
	<path class="st1" d="M198.6,76.6c7.1,0,12.9-5.8,12.9-12.9c0-7.1-5.8-12.9-12.9-12.9c-7.1,0-12.9,5.8-12.9,12.9
		C185.7,70.9,191.5,76.6,198.6,76.6z M198.6,54.5c5.1,0,9.3,4.2,9.3,9.3c0,5.1-4.2,9.3-9.3,9.3c-5.1,0-9.3-4.2-9.3-9.3
		C189.3,58.6,193.5,54.5,198.6,54.5z M224.4,108.9l-0.8-10.4c-0.6-6.4-1.9-19.8-19.4-19.8H193c-17.8,0-18.9,13.4-19.4,19.9
		l-0.8,10.5c0,1,0.1,1.9,0.3,2.7l-67.8,25c-2.6-4.1-7.3-7.4-16-7.4H78.2c-17.8,0-18.9,13.4-19.4,19.9l-0.8,10.5
		c0,6.7,3.9,10.1,7.9,13l0.2,0.1l-0.2,3.1c0,0.6,0.2,1.1,0.6,1.5L67,178c2,1.7,6.6,3.8,16.7,3.8c9.8,0,14.4-2,16.5-3.6l0.7-0.5
		c0.5-0.4,0.7-0.9,0.7-1.5l-0.1-1.7l43.4,30.9c-3.5,4.4-4,10.3-4.3,13.9l-0.8,10.5c0,6.7,3.9,10.1,7.9,13l0.2,0.1l-0.2,3.1
		c0,0.6,0.2,1.1,0.6,1.5l0.6,0.5c2,1.7,6.6,3.8,16.7,3.8c9.8,0,14.4-2,16.5-3.6l0.7-0.5c0.5-0.4,0.7-0.9,0.7-1.5l-0.2-3.2l0.2-0.1
		c4.2-3.1,8-6.4,8-13.2l-0.8-10.4c-0.4-4.5-1.2-12.4-7.7-16.7l18.2-71.3c8.1-0.3,12.1-2,14-3.5l0.7-0.5c0.5-0.4,0.7-0.9,0.7-1.5
		l-0.2-3.2l0.2-0.1C220.6,119,224.4,115.7,224.4,108.9z M197.4,82.3h3.5l-1.5,3.8l2.6,33.3l-2.7,2.2l-2.7-2.2l2.3-33.3L197.4,82.3z
		 M78.2,133h11.1c0.4,0,0.7,0,1,0c-1.4,1.6-3.4,3.6-5.9,4.7c-2.6-1-4.9-3-6.5-4.7C78,133,78.1,133,78.2,133z M101.1,168.6l-1.4-20.9
		c-0.1-1-0.9-1.7-1.9-1.7c-1,0.1-1.7,0.9-1.7,1.9l1.6,24.2l0.2,3.2c-1.2,0.9-4.8,2.8-14.2,2.8c-9.7,0-13.2-2-14.3-2.9l0.2-3.2v0
		l1.6-24.1c0.1-1-0.7-1.8-1.7-1.9c-1-0.1-1.8,0.7-1.9,1.7l-1.4,20.8c-2.7-2.2-4.8-4.6-4.8-8.8l0.8-10.3c0.5-6,1.3-14.9,12.4-16.3
		c1.8,2.1,5.2,5.5,9.2,6.9l0.4,0.1l0.4-0.2c3.9-1.5,6.8-4.7,8.3-6.8c10.5,1.7,11.4,10.3,12,16.2l0.8,10.2
		C105.9,164,104,166.3,101.1,168.6z M187,219.4l0.8,10.2c0,4.2-1.9,6.6-4.8,8.9l-1.4-20.9c-0.1-1-0.9-1.7-1.9-1.7
		c-1,0.1-1.7,0.9-1.7,1.9l1.6,24.2l0.2,3.2c-1.2,0.9-4.8,2.8-14.2,2.8c-9.7,0-13.2-2-14.3-2.9l0.2-3.2v0l1.6-24.1
		c0.1-1-0.7-1.8-1.7-1.9c-1-0.1-1.8,0.7-1.9,1.7l-1.4,20.8c-2.7-2.2-4.8-4.6-4.8-8.8l0.8-10.3c0.5-6.6,1.4-16.6,15.8-16.6h11.1
		C185.4,202.8,186.4,212.8,187,219.4z M178.5,200.3c-2.1-0.6-4.5-1-7.3-1H160c-5,0-8.7,1.1-11.4,2.7l-44.3-31.4
		c2.9-2.6,5.1-5.7,5.1-11l-0.8-10.4c-0.2-2.2-0.5-5.1-1.5-8l67.5-24.9c1.5,2.4,3.7,4.2,5.9,5.8l0.2,0.1l-0.2,3.1
		c0,0.6,0.2,1.1,0.6,1.5l0.6,0.5c1.9,1.6,5.9,3.4,14.2,3.7L178.5,200.3z M216,118l-1.4-20.9c-0.1-1-0.9-1.7-1.9-1.7
		c-1,0.1-1.7,0.9-1.7,1.9l1.6,24.2l0.2,3.2c-1.2,0.9-4.8,2.8-14.2,2.8c-9.7,0-13.2-2-14.3-2.9l0.2-3.2v0l1.6-24.1
		c0.1-1-0.7-1.8-1.7-1.9c-1-0.1-1.8,0.7-1.9,1.7l-1.4,20.8c-2.7-2.2-4.8-4.6-4.8-8.8l0.8-10.3c0.5-6.6,1.4-16.6,15.8-16.6h1.8
		l1.6,4.2l-2.4,34l5.2,4.2l5.2-4.2l-2.7-34l1.7-4.2h0.7c14.2,0,15.2,10,15.8,16.5l0.8,10.2C220.8,113.3,218.9,115.6,216,118z
		 M83.7,127.3c7.1,0,12.9-5.8,12.9-12.9c0-7.1-5.8-12.9-12.9-12.9c-7.1,0-12.9,5.8-12.9,12.9C70.9,121.5,76.6,127.3,83.7,127.3z
		 M83.7,105.2c5.1,0,9.3,4.2,9.3,9.3c0,5.1-4.2,9.3-9.3,9.3c-5.1,0-9.3-4.2-9.3-9.3C74.5,109.3,78.6,105.2,83.7,105.2z M165.6,171.4
		c-7.1,0-12.9,5.8-12.9,12.9c0,7.1,5.8,12.9,12.9,12.9c7.1,0,12.9-5.8,12.9-12.9C178.5,177.2,172.7,171.4,165.6,171.4z M165.6,193.6
		c-5.1,0-9.3-4.2-9.3-9.3c0-5.1,4.2-9.3,9.3-9.3c5.1,0,9.3,4.2,9.3,9.3C174.9,189.4,170.7,193.6,165.6,193.6z M157.9,205.6
		c0-1-0.8-1.8-1.8-1.8c-1,0-1.8,0.8-1.8,1.8c0,1,0.8,1.8,1.8,1.8C157.1,207.4,157.9,206.6,157.9,205.6z M158.9,207.6
		c-1,0-1.8,0.8-1.8,1.8c0,1,0.8,1.8,1.8,1.8c1,0,1.8-0.8,1.8-1.8C160.7,208.4,159.9,207.6,158.9,207.6z M163.2,209.3
		c-1,0-1.8,0.8-1.8,1.8c0,1,0.8,1.8,1.8,1.8c1,0,1.8-0.8,1.8-1.8C165.1,210.1,164.2,209.3,163.2,209.3z M175,203.8
		c-1,0-1.8,0.8-1.8,1.8c0,1,0.8,1.8,1.8,1.8c1,0,1.8-0.8,1.8-1.8C176.9,204.6,176,203.8,175,203.8z M172.3,207.6
		c-1,0-1.8,0.8-1.8,1.8c0,1,0.8,1.8,1.8,1.8c1,0,1.8-0.8,1.8-1.8C174.1,208.4,173.3,207.6,172.3,207.6z M167.9,209.3
		c-1,0-1.8,0.8-1.8,1.8c0,1,0.8,1.8,1.8,1.8c1,0,1.8-0.8,1.8-1.8C169.8,210.1,168.9,209.3,167.9,209.3z"/>
</g>
</svg>
