<?xml version="1.0" encoding="utf-8"?>
<!-- Generator: Adobe Illustrator 20.0.0, SVG Export Plug-In . SVG Version: 6.00 Build 0)  -->
<!DOCTYPE svg PUBLIC "-//W3C//DTD SVG 1.1//EN" "http://www.w3.org/Graphics/SVG/1.1/DTD/svg11.dtd">
<svg version="1.1" id="Layer_1" xmlns="http://www.w3.org/2000/svg" xmlns:xlink="http://www.w3.org/1999/xlink" x="0px" y="0px"
	 viewBox="0 0 300 300" style="enable-background:new 0 0 300 300;" xml:space="preserve">
<style type="text/css">
	.st0{fill:#FFFFFF;}
	.st1{fill:#95D600;}
</style>
<circle class="st0" cx="149.5" cy="150" r="144.1"/>
<path class="st1" d="M258.1,113.4l-12.7-7.4c-0.3-0.2-0.6-0.2-1-0.1c-0.3,0.1-0.6,0.3-0.8,0.6l-2.5,4.3l-9.3,15.9
	c-3-3.7-2.9-3.6-6.6-8.2c-10.9-12.7-27-20.6-44.5-20.6c-25.7,0-48.4,16.8-55.9,41.1c-4.2-1.5-8.6-2.3-13.1-2.3
	c-18.2,0-33.9,12.5-38,30.1c-16.3,0.6-30,11.9-33.6,27.9c-0.2,0.7,0,1.5,0.5,2.1c0.5,0.6,1.2,0.9,1.9,0.9h156.7c0,0,0,0,0,0
	c0.2,0,0.7,0.1,1,0.1c0.1,0,0.1,0,0.2-0.1c0.1,0,0.1,0,0.1,0.1c0.3,0,0.6,0,0.8-0.2l13.7-8.1c0,0,0,0,0,0c0.2-0.1,0.3-0.2,0.4-0.4
	l0,0c0,0,0,0,0,0l11.4-19.6l12.1-20.8l19.5-33.5C259,114.6,258.8,113.8,258.1,113.4z M45.8,192.9c4.2-12.6,15.9-21.2,29.6-21.2h0
	l0.4,0c1.2,0.1,2.2-0.8,2.4-2c3-16.3,17.1-28.1,33.6-28.1c4.4,0,8.7,0.9,12.8,2.5c2.5,1.2,7.9,4.4,11.3,10c0.4,0.7,1.2,1,1.9,0.9
	c0.2,0,0.4-0.1,0.6-0.2c0.9-0.5,1.1-1.6,0.6-2.5c-2.9-4.8-7-8-10.1-9.9c6.3-23.4,27.5-39.7,51.8-39.7c17,0,32.4,7.9,42.4,20.7
	c3.6,4.2,5.9,8.2,5.9,8.2l-12.3,21.1l-10.3,17.8l-5.8,9.9c-0.1,0.2-0.1,0.3-0.2,0.5c0,0,0,0,0,0l-0.8,11.9H45.8z M208,190.7
	l-5.6-0.2l0.5-7.4l8.3,4.8l0.7,0.4L208,190.7z M214,186.7l-6.4-3.7l-4.1-2.4l13-22.3l0.7-1.2l25.7-44l0,0l0,0l2.4-4.1l10.5,6.1
	L214,186.7z"/>
</svg>
