<?xml version="1.0" encoding="utf-8"?>
<!-- Generator: Adobe Illustrator 21.1.0, SVG Export Plug-In . SVG Version: 6.00 Build 0)  -->
<svg version="1.1" id="Layer_1" xmlns="http://www.w3.org/2000/svg" xmlns:xlink="http://www.w3.org/1999/xlink" x="0px" y="0px"
	 viewBox="0 0 290.2 74.6" style="enable-background:new 0 0 290.2 74.6;" xml:space="preserve">
<style type="text/css">
	.st0{fill:#BB1C29;}
	.st1{fill:#E12434;}
	.st2{fill:#960F1B;}
	.st3{fill:#FFFFFF;}
	.st4{fill:#D5D5D5;}
	.st5{fill:#8E8E8E;}
</style>
<title>Logotype_RH_OpenShiftOnline_wLogo_RGB_White</title>
<path class="st0" d="M23.6,33.5l-13.1,4.7c0.2,2.1,0.5,4.2,1,6.2l12.4-4.5C23.5,37.8,23.4,35.6,23.6,33.5"/>
<path class="st0" d="M81.3,19c-0.9-1.9-2-3.7-3.2-5.4l-13,4.8c1.5,1.5,2.8,3.3,3.8,5.2L81.3,19z"/>
<path class="st1" d="M52.5,15.3c2.6,1.2,5,2.9,7,5l13.1-4.8C60.5-1.1,37.2-4.9,20.5,7.2C10,14.8,4.2,27.3,5.1,40.2l13.1-4.8
	c1-13.3,12.6-23.3,25.9-22.3C47,13.4,49.9,14.1,52.5,15.3"/>
<path class="st1" d="M12.4,44.1L0,48.6c1.1,4.5,3.1,8.8,5.8,12.6l13-4.7C15.5,53.1,13.3,48.8,12.4,44.1"/>
<path class="st1" d="M66.5,39.2c-0.2,2.9-1,5.7-2.2,8.4c-5.7,12.1-20.1,17.4-32.2,11.7c-2.6-1.2-5-2.9-7.1-5L12,59
	c3.7,5.2,8.7,9.4,14.5,12.1c18.7,8.7,40.9,0.6,49.6-18c2.7-5.8,3.9-12.2,3.4-18.6L66.5,39.2z"/>
<path class="st1" d="M69.7,23.3l-12.4,4.5c2.3,4.2,3.4,8.9,3,13.7l13-4.7C72.9,32,71.7,27.5,69.7,23.3"/>
<path class="st2" d="M23.5,36.1c0-0.9,0-1.7,0.1-2.6l-13.1,4.8c0.1,0.8,0.2,1.7,0.3,2.5L23.5,36.1z"/>
<path class="st2" d="M79.4,15.6c-0.4-0.7-0.8-1.3-1.3-2l-13,4.8c0.6,0.6,1.1,1.2,1.6,1.8L79.4,15.6z"/>
<path class="st0" d="M12,59c1,1.4,2.1,2.7,3.3,4l14.2-5.1c-1.6-1-3.1-2.2-4.5-3.6L12,59z M79.5,34.5l-13,4.7
	c-0.1,1.9-0.5,3.8-1.1,5.6l14.1-5.2C79.6,37.9,79.6,36.2,79.5,34.5"/>
<path class="st3" d="M105.5,21.4l-2.7-5.7h-1.9v5.7h-4.6V4.6h7.5c0.9,0,1.8,0.1,2.7,0.3c0.8,0.2,1.5,0.5,2.1,1c0.6,0.4,1,1,1.3,1.6
	c0.3,0.8,0.5,1.7,0.5,2.5c0,1.1-0.2,2.2-0.8,3.1c-0.6,0.8-1.3,1.4-2.2,1.8l3.4,6.4L105.5,21.4L105.5,21.4z M105.3,8.9
	c-0.4-0.4-1-0.6-1.6-0.5h-2.8v3.7h2.8c0.6,0.1,1.2-0.1,1.6-0.5c0.3-0.4,0.5-0.9,0.5-1.4C105.8,9.7,105.6,9.3,105.3,8.9z"/>
<path class="st3" d="M114.2,21.4V4.6h12.9v3.9h-8.3v2.3h5v3.8h-5v2.9h8.4v3.9H114.2L114.2,21.4z"/>
<path class="st3" d="M144.9,16.9c-0.3,1-0.9,1.9-1.7,2.6c-0.8,0.7-1.8,1.2-2.8,1.4c-1.3,0.3-2.6,0.5-3.9,0.4H131V4.6h5.9
	c1.2,0,2.4,0.1,3.6,0.4c1,0.2,1.9,0.7,2.7,1.4c0.8,0.7,1.4,1.6,1.7,2.6c0.4,1.3,0.7,2.6,0.6,4C145.5,14.3,145.3,15.6,144.9,16.9z
	 M140.5,11c-0.1-0.5-0.3-1-0.7-1.4c-0.3-0.4-0.7-0.6-1.2-0.8c-0.6-0.2-1.2-0.3-1.8-0.2h-1.1v8.8h1c0.6,0,1.2-0.1,1.8-0.2
	c0.5-0.1,0.9-0.4,1.3-0.7c0.4-0.4,0.6-0.9,0.7-1.4c0.2-0.7,0.2-1.4,0.2-2.1C140.7,12.3,140.7,11.6,140.5,11z"/>
<path class="st3" d="M167.6,21.4v-6.6h-5.2v6.6h-4.8V4.6h4.8v6.1h5.2V4.6h4.8v16.8H167.6z"/>
<path class="st3" d="M187.4,21.4l-0.9-3h-5l-0.9,3h-5l6.1-16.8h4.7l6.1,16.8H187.4L187.4,21.4z M185,13.7c-0.1-0.5-0.3-1-0.4-1.4
	l-0.3-1.1c-0.1-0.3-0.2-0.6-0.2-0.9c-0.1-0.3-0.1-0.5-0.2-0.8c0,0.3-0.1,0.6-0.2,0.8s-0.1,0.6-0.2,0.9l-0.3,1.1l-0.4,1.4l-0.3,1.1
	h2.8L185,13.7z"/>
<path class="st3" d="M201.9,8.7v12.7h-4.7V8.7h-4.7V4.6h14.1v4.1L201.9,8.7L201.9,8.7z"/>
<path class="st3" d="M212.8,7.5c-0.2,0.5-0.6,0.9-1.1,1.1c-0.6,0.2-1.2,0.2-1.7,0c-0.5-0.2-0.9-0.6-1.1-1.1c-0.2-0.6-0.2-1.2,0-1.7
	c0.2-0.5,0.6-0.9,1.1-1.1c0.6-0.2,1.2-0.2,1.7,0c0.5,0.2,0.9,0.6,1.1,1.1C213.1,6.3,213.1,6.9,212.8,7.5z M212.5,5.9
	c-0.1-0.2-0.2-0.4-0.4-0.6c-0.2-0.2-0.4-0.3-0.6-0.4c-0.5-0.2-1-0.2-1.4,0c-0.5,0.2-0.8,0.5-1,1c-0.2,0.5-0.2,1,0,1.4
	c0.2,0.5,0.5,0.8,1,1c0.5,0.2,1,0.2,1.4,0c0.2-0.1,0.4-0.2,0.6-0.4c0.2-0.2,0.3-0.4,0.4-0.6C212.7,7,212.7,6.4,212.5,5.9z
	 M211.7,6.6c-0.1,0.1-0.2,0.2-0.4,0.2l0.5,1h-0.5l-0.5-0.9h-0.5v0.9H210V5.4h1c0.1,0,0.2,0,0.3,0c0.1,0,0.2,0.1,0.2,0.1
	c0.1,0.1,0.1,0.1,0.2,0.2c0,0.1,0.1,0.2,0.1,0.3C211.8,6.3,211.8,6.5,211.7,6.6L211.7,6.6z M211.3,5.9c-0.1-0.1-0.2-0.1-0.3-0.1
	h-0.6v0.7h0.6c0.1,0,0.2,0,0.3-0.1C211.5,6.3,211.5,6.1,211.3,5.9C211.3,5.9,211.3,5.9,211.3,5.9L211.3,5.9z"/>
<path class="st3" d="M115.4,44c-0.5,1.5-1.2,2.9-2.1,4.1c-0.9,1.1-2,2.1-3.3,2.7c-2.7,1.3-5.8,1.3-8.6,0c-1.3-0.6-2.4-1.6-3.3-2.7
	c-1-1.2-1.7-2.6-2.1-4.1c-0.5-1.7-0.8-3.5-0.7-5.2c0-1.8,0.2-3.5,0.8-5.2c0.4-1.5,1.2-2.9,2.1-4.1c0.9-1.1,2-2.1,3.3-2.7
	c2.7-1.3,5.8-1.3,8.6,0c1.3,0.6,2.4,1.6,3.3,2.7c0.9,1.2,1.7,2.6,2.1,4.1c0.5,1.7,0.8,3.5,0.8,5.2C116.2,40.6,115.9,42.3,115.4,44z
	 M112.8,34.5c-0.4-1.2-0.9-2.3-1.6-3.3c-0.6-0.9-1.5-1.6-2.4-2.1c-0.9-0.5-2-0.7-3.1-0.7c-1,0-2.1,0.2-3,0.7
	c-0.9,0.5-1.8,1.2-2.4,2.1c-0.7,1-1.3,2.1-1.6,3.3c-0.4,1.4-0.6,2.8-0.6,4.3c0,1.5,0.2,2.9,0.6,4.3c0.3,1.2,0.9,2.3,1.6,3.3
	c0.6,0.9,1.5,1.6,2.4,2.1c0.9,0.5,2,0.7,3.1,0.7c1,0,2.1-0.3,3-0.7c1-0.5,1.8-1.2,2.4-2.1c0.7-1,1.2-2.1,1.6-3.3
	c0.4-1.4,0.6-2.8,0.6-4.3C113.4,37.4,113.2,35.9,112.8,34.5z"/>
<path class="st3" d="M139.6,37.1c-0.4,0.9-1,1.8-1.7,2.4c-0.8,0.7-1.7,1.2-2.7,1.5c-1.1,0.3-2.3,0.5-3.5,0.5h-6.1v9.9h-2.8V26.2h9.4
	c1.1,0,2.2,0.1,3.2,0.4c0.9,0.3,1.8,0.8,2.5,1.4c0.7,0.6,1.3,1.5,1.7,2.4C140.5,32.6,140.5,34.9,139.6,37.1z M136.1,30.1
	c-1.1-0.9-2.5-1.4-4-1.3h-6.5v10.2h6.2c3.8,0,5.7-1.7,5.7-5.1C137.5,32.5,137,31.1,136.1,30.1L136.1,30.1z"/>
<path class="st3" d="M146.1,51.4V26.2h15.2v2.6h-12.4v7.9h7.2v2.6h-7.2v9.6h13v2.6L146.1,51.4L146.1,51.4z"/>
<path class="st3" d="M183.8,51.4l-11-17.2c-0.1-0.2-0.3-0.5-0.5-0.8l-0.5-0.9l-0.5-0.8c-0.1-0.2-0.2-0.4-0.3-0.7v20.4h-2.7V26.2h2.7
	L182,43.8c0.1,0.2,0.3,0.5,0.5,0.8l0.5,0.9l0.5,0.8c0.1,0.2,0.2,0.4,0.3,0.7V26.2h2.8v25.2H183.8L183.8,51.4z"/>
<path class="st3" d="M209.1,47.6c-0.4,0.9-0.9,1.6-1.6,2.2c-0.8,0.7-1.7,1.2-2.6,1.5c-1.1,0.4-2.3,0.6-3.5,0.5c-1.6,0-3.3-0.3-4.8-1
	c-1.4-0.6-2.6-1.5-3.7-2.5l1.9-2.1c0.9,0.9,2,1.6,3.1,2.2c1.1,0.6,2.4,0.8,3.6,0.8c1.4,0.1,2.8-0.3,4-1.2c1-0.8,1.5-1.9,1.5-3.2
	c0-0.5-0.1-1.1-0.3-1.6c-0.2-0.5-0.6-1-1-1.3c-0.6-0.5-1.2-0.9-1.9-1.2c-0.9-0.5-1.9-0.9-2.9-1.2c-1.2-0.4-2.3-0.9-3.4-1.5
	c-0.8-0.4-1.6-0.9-2.2-1.6c-0.5-0.5-1-1.2-1.2-1.9c-0.3-0.8-0.4-1.6-0.4-2.4c0-0.9,0.2-1.9,0.6-2.7c0.4-0.8,0.9-1.5,1.6-2
	c0.7-0.6,1.6-1,2.5-1.3c1-0.3,2.1-0.4,3.2-0.4c1.5,0,2.9,0.2,4.3,0.7c1.2,0.5,2.3,1.2,3.4,2l-1.8,2.2c-0.8-0.7-1.8-1.4-2.8-1.8
	c-1-0.4-2.2-0.6-3.3-0.6c-0.8,0-1.5,0.1-2.2,0.3c-0.5,0.2-1,0.5-1.5,0.8c-0.4,0.3-0.7,0.7-0.9,1.2c-0.2,0.5-0.3,0.9-0.3,1.4
	c0,0.5,0.1,1,0.2,1.4c0.2,0.5,0.5,0.9,0.9,1.2c0.5,0.5,1.2,0.9,1.8,1.2c1,0.5,2,0.9,3.1,1.3c1.2,0.4,2.4,0.9,3.5,1.5
	c0.8,0.4,1.6,1,2.2,1.7c0.5,0.6,1,1.3,1.2,2c0.3,0.8,0.4,1.6,0.4,2.5C209.7,45.8,209.5,46.7,209.1,47.6z"/>
<path class="st3" d="M231.9,51.4V39.5h-12.5v11.9h-2.8V26.2h2.8V37h12.5V26.2h2.8v25.2H231.9L231.9,51.4z"/>
<path class="st3" d="M242.6,51.4V26.2h2.8v25.2H242.6z"/>
<path class="st3" d="M256.1,28.8v8.3h6.9v2.6h-6.9v11.7h-2.8V26.2h14.8v2.6H256.1L256.1,28.8z"/>
<path class="st3" d="M282.8,28.8v22.6H280V28.8h-7.5v-2.6h17.6v2.6H282.8L282.8,28.8z"/>
<path class="st3" d="M106.1,65.8c-0.2,0.7-0.6,1.4-1.1,2.1c-0.5,0.6-1,1-1.7,1.3c-1.4,0.6-3,0.6-4.4,0c-0.7-0.3-1.2-0.7-1.7-1.3
	c-0.5-0.6-0.9-1.3-1.1-2c-0.3-0.9-0.4-1.8-0.4-2.7c0-0.9,0.1-1.8,0.4-2.7c0.2-0.7,0.6-1.4,1.1-2.1c0.5-0.6,1-1,1.7-1.3
	c0.7-0.3,1.4-0.5,2.2-0.5c0.8,0,1.5,0.1,2.2,0.5c0.7,0.3,1.2,0.7,1.7,1.3c0.5,0.6,0.9,1.3,1.1,2c0.3,0.9,0.4,1.8,0.4,2.7
	C106.5,64,106.3,64.9,106.1,65.8z M104.3,61.2c-0.2-0.5-0.4-1-0.7-1.5c-0.3-0.4-0.7-0.7-1.1-0.9c-0.4-0.2-0.9-0.3-1.4-0.3
	c-0.5,0-1,0.1-1.4,0.3c-0.4,0.2-0.8,0.5-1.1,0.9c-0.3,0.4-0.6,0.9-0.7,1.5c-0.2,0.6-0.3,1.3-0.2,1.9c0,0.7,0.1,1.3,0.3,1.9
	c0.2,0.5,0.4,1,0.7,1.5c0.3,0.4,0.7,0.7,1.1,0.9c0.4,0.2,0.9,0.3,1.4,0.3c0.5,0,1-0.1,1.4-0.3c0.4-0.2,0.8-0.5,1.1-0.9
	c0.3-0.4,0.6-0.9,0.7-1.5c0.2-0.6,0.3-1.3,0.2-1.9C104.5,62.5,104.5,61.8,104.3,61.2L104.3,61.2z"/>
<path class="st3" d="M114.6,69.4v-5.3c0.1-0.7-0.1-1.4-0.5-2c-0.4-0.4-0.9-0.6-1.4-0.6c-0.5,0-1.1,0.2-1.4,0.6
	c-0.4,0.5-0.5,1.1-0.5,1.8v5.5h-1.9V60h1.9v0.9c0.3-0.4,0.6-0.6,1-0.8c0.4-0.2,0.9-0.3,1.4-0.3c1-0.1,1.9,0.3,2.5,1.1
	c0.6,0.9,0.9,2,0.9,3.2v5.4L114.6,69.4L114.6,69.4z"/>
<path class="st3" d="M119.2,69.4V57.3l1.9-1v13.1L119.2,69.4L119.2,69.4z"/>
<path class="st3" d="M125.8,58.4c-0.2,0.2-0.5,0.4-0.8,0.3c-0.3,0-0.6-0.1-0.9-0.3c-0.2-0.2-0.4-0.5-0.4-0.8c0-0.7,0.5-1.2,1.2-1.2
	c0,0,0,0,0,0c0.3,0,0.6,0.1,0.8,0.3c0.2,0.2,0.4,0.5,0.4,0.8C126.1,57.9,126,58.2,125.8,58.4z M124,69.4v-9.4h1.9v9.4H124z"/>
<path class="st3" d="M134.4,69.4v-5.3c0.1-0.7-0.1-1.4-0.5-2c-0.4-0.4-0.9-0.6-1.4-0.6c-0.5,0-1.1,0.2-1.4,0.6
	c-0.4,0.5-0.5,1.1-0.5,1.8v5.5h-1.9V60h1.8v0.9c0.3-0.4,0.6-0.6,1-0.8c0.4-0.2,0.9-0.3,1.4-0.3c1-0.1,1.9,0.3,2.5,1.1
	c0.6,0.9,0.9,2,0.9,3.2v5.4L134.4,69.4L134.4,69.4z"/>
<path class="st3" d="M146.6,65c0,0.2,0,0.3,0,0.4h-6.2c0,0.4,0.1,0.8,0.3,1.2c0.1,0.3,0.3,0.6,0.5,0.8c0.2,0.2,0.5,0.4,0.7,0.5
	c0.3,0.1,0.5,0.2,0.8,0.2c0.4,0,0.7-0.1,1.1-0.2c0.4-0.1,0.7-0.3,1-0.6l1.1,1.2c-0.4,0.4-0.9,0.7-1.4,0.9c-0.6,0.2-1.2,0.3-1.9,0.3
	c-0.5,0-1.1-0.1-1.6-0.3c-0.5-0.2-1-0.6-1.3-1c-0.4-0.5-0.7-1-0.9-1.6c-0.2-0.7-0.3-1.4-0.3-2.1c0-0.7,0.1-1.4,0.3-2.1
	c0.2-0.6,0.5-1.1,0.9-1.5c0.4-0.4,0.8-0.7,1.3-0.9c0.5-0.2,1.1-0.3,1.7-0.3c0.6,0,1.2,0.1,1.8,0.4c0.5,0.2,0.9,0.6,1.2,1
	c0.3,0.5,0.6,1,0.7,1.5c0.2,0.6,0.2,1.2,0.2,1.8C146.6,64.7,146.6,64.8,146.6,65z M144.6,62.9c-0.1-0.3-0.2-0.5-0.4-0.8
	c-0.2-0.2-0.4-0.4-0.7-0.5c-0.3-0.1-0.7-0.2-1-0.2c-0.6,0-1.1,0.2-1.5,0.6c-0.4,0.5-0.6,1.1-0.7,1.8h4.4
	C144.7,63.5,144.6,63.2,144.6,62.9L144.6,62.9z"/>
<path class="st4" d="M23.6,33.5l-13.1,4.7c0.2,2.1,0.5,4.2,1,6.2l12.4-4.5C23.5,37.8,23.4,35.6,23.6,33.5"/>
<path class="st4" d="M81.3,19c-0.9-1.9-2-3.7-3.2-5.4l-13,4.8c1.5,1.5,2.8,3.3,3.8,5.2L81.3,19z"/>
<path class="st3" d="M52.5,15.3c2.6,1.2,5,2.9,7,5l13.1-4.8C60.5-1.1,37.2-4.9,20.5,7.2C10,14.8,4.2,27.3,5.1,40.2l13.1-4.8
	c1-13.3,12.6-23.3,25.9-22.3C47,13.4,49.9,14.1,52.5,15.3"/>
<path class="st3" d="M12.4,44.1L0,48.6c1.1,4.5,3.1,8.8,5.8,12.6l13-4.7C15.5,53.1,13.3,48.8,12.4,44.1"/>
<path class="st3" d="M66.5,39.2c-0.2,2.9-1,5.7-2.2,8.4c-5.7,12.1-20.1,17.4-32.2,11.7c-2.6-1.2-5-2.9-7.1-5L12,59
	c3.7,5.2,8.7,9.4,14.5,12.1c18.7,8.7,40.9,0.6,49.6-18c2.7-5.8,3.9-12.2,3.4-18.6L66.5,39.2z"/>
<path class="st3" d="M69.7,23.3l-12.4,4.5c2.3,4.2,3.4,8.9,3,13.7l13-4.7C72.9,32,71.7,27.5,69.7,23.3"/>
<path class="st5" d="M23.5,36.1c0-0.9,0-1.7,0.1-2.6l-13.1,4.8c0.1,0.8,0.2,1.7,0.3,2.5L23.5,36.1z"/>
<path class="st5" d="M79.4,15.6c-0.4-0.7-0.8-1.3-1.3-2l-13,4.8c0.6,0.6,1.1,1.2,1.6,1.8L79.4,15.6z"/>
<path class="st4" d="M12,59c1,1.4,2.1,2.7,3.3,4l14.2-5.1c-1.6-1-3.1-2.2-4.5-3.6L12,59z M79.5,34.5l-13,4.7
	c-0.1,1.9-0.5,3.8-1.1,5.6l14.1-5.2C79.6,37.9,79.6,36.2,79.5,34.5"/>
</svg>
