<?xml version="1.0" encoding="utf-8"?>
<!-- Generator: Adobe Illustrator 20.0.0, SVG Export Plug-In . SVG Version: 6.00 Build 0)  -->
<!DOCTYPE svg PUBLIC "-//W3C//DTD SVG 1.1//EN" "http://www.w3.org/Graphics/SVG/1.1/DTD/svg11.dtd">
<svg version="1.1" id="Layer_1" xmlns="http://www.w3.org/2000/svg" xmlns:xlink="http://www.w3.org/1999/xlink" x="0px" y="0px"
	 viewBox="0 0 500.8 71.4" style="enable-background:new 0 0 500.8 71.4;" xml:space="preserve">
<style type="text/css">
	.st0{fill:#A21D21;}
	.st1{fill:#CB2026;}
	.st2{fill:#811517;}
	.st3{fill:#FFFFFF;}
</style>
<g>
	<path class="st0" d="M25.7,33.2l-8.9,3.2c0.1,1.4,0.4,2.8,0.7,4.2l8.5-3.1C25.7,36.1,25.6,34.6,25.7,33.2"/>
	<path class="st0" d="M65.1,23.3c-0.6-1.3-1.3-2.5-2.2-3.7L54,22.9c1,1.1,1.9,2.3,2.6,3.5L65.1,23.3z"/>
	<path class="st1" d="M45.5,20.8c1.9,0.9,3.5,2,4.8,3.4l8.9-3.2c-2.5-3.5-5.8-6.4-10-8.3C36.5,6.7,21.3,12.3,15.4,25
		c-1.9,4.1-2.6,8.5-2.3,12.7l8.9-3.2c0.1-1.9,0.6-3.9,1.5-5.7C27.4,20.5,37.2,16.9,45.5,20.8"/>
	<path class="st1" d="M18.1,40.4l-8.5,3.1c0.8,3.1,2.1,6,4,8.6l8.9-3.2C20.2,46.6,18.7,43.6,18.1,40.4"/>
	<path class="st1" d="M55,37.1c-0.1,1.9-0.6,3.9-1.5,5.7c-3.9,8.3-13.7,11.9-22,8c-1.9-0.9-3.5-2-4.8-3.4l-8.9,3.2
		c2.5,3.5,5.8,6.4,9.9,8.3c12.7,5.9,27.9,0.4,33.9-12.3c1.9-4.1,2.6-8.5,2.3-12.7L55,37.1z"/>
	<path class="st1" d="M57.2,26.2l-8.5,3.1c1.6,2.8,2.3,6.1,2.1,9.3l8.9-3.2C59.5,32.2,58.6,29,57.2,26.2"/>
	<path class="st2" d="M25.7,34.9c0-0.6,0-1.2,0-1.8l-8.9,3.2c0,0.6,0.1,1.1,0.2,1.7L25.7,34.9z"/>
	<path class="st2" d="M63.8,20.9c-0.3-0.5-0.6-0.9-0.9-1.3L54,22.9c0.4,0.4,0.8,0.8,1.1,1.3L63.8,20.9z"/>
	<path class="st0" d="M17.8,50.6c0.7,1,1.4,1.9,2.3,2.8l9.7-3.5c-1.1-0.7-2.2-1.5-3.1-2.5L17.8,50.6z M63.9,33.8L55,37.1
		c-0.1,1.3-0.3,2.6-0.8,3.8l9.7-3.5C64,36.2,64,35,63.9,33.8"/>
</g>
<g>
	<path class="st3" d="M90.9,48L87,39.8h-2.7V48h-6.5V23.9h10.8c1.4,0,2.7,0.1,3.8,0.4c1.2,0.3,2.2,0.7,3,1.4
		c0.8,0.6,1.5,1.4,1.9,2.4c0.4,1,0.7,2.2,0.7,3.6c0,1.8-0.4,3.3-1.2,4.4c-0.8,1.1-1.8,2-3.2,2.6l4.8,9.2H90.9z M90.6,30
		c-0.5-0.5-1.2-0.7-2.3-0.7h-4v5.3h3.9c1.1,0,1.9-0.2,2.4-0.7c0.5-0.5,0.7-1.1,0.7-2C91.3,31.1,91,30.5,90.6,30z"/>
	<path class="st3" d="M103.4,48V23.9h18.5v5.6H110v3.2h7.1v5.5H110v4.1h12.1V48H103.4z"/>
	<path class="st3" d="M147.4,41.5c-0.6,1.6-1.4,2.8-2.5,3.8c-1.1,1-2.5,1.6-4.1,2.1c-1.6,0.4-3.5,0.6-5.6,0.6h-7.8V23.9h8.4
		c1.9,0,3.6,0.2,5.1,0.6c1.5,0.4,2.8,1,3.9,2c1.1,0.9,1.9,2.2,2.5,3.7c0.6,1.5,0.9,3.4,0.9,5.7S148,40,147.4,41.5z M141.1,33
		c-0.2-0.8-0.5-1.5-0.9-2c-0.4-0.5-1-0.9-1.7-1.1c-0.7-0.2-1.6-0.4-2.6-0.4h-1.7v12.7h1.4c1,0,1.9-0.1,2.7-0.3
		c0.7-0.2,1.3-0.6,1.8-1.1c0.5-0.5,0.8-1.1,1-2c0.2-0.8,0.3-1.8,0.3-3C141.4,34.8,141.3,33.8,141.1,33z"/>
	<path class="st3" d="M180,48v-9.5h-7.5V48h-6.8V23.9h6.8v8.8h7.5v-8.8h6.8V48H180z"/>
	<path class="st3" d="M208.4,48l-1.3-4.2h-7.2l-1.3,4.2h-7.2l8.7-24.1h6.8l8.7,24.1H208.4z M205,36.8c-0.2-0.8-0.4-1.5-0.6-2
		c-0.2-0.6-0.3-1.1-0.4-1.5s-0.2-0.9-0.3-1.3c-0.1-0.4-0.2-0.8-0.2-1.2c-0.1,0.4-0.1,0.8-0.2,1.2c-0.1,0.4-0.2,0.8-0.3,1.3
		c-0.1,0.5-0.3,1-0.4,1.5c-0.2,0.6-0.3,1.2-0.6,2l-0.4,1.6h4L205,36.8z"/>
	<path class="st3" d="M229.2,29.7V48h-6.7V29.7h-6.8v-5.8H236v5.8H229.2z"/>
	<path class="st3" d="M244.9,28c-0.2,0.4-0.4,0.7-0.7,1c-0.3,0.3-0.6,0.5-1,0.7c-0.4,0.2-0.8,0.2-1.2,0.2c-0.4,0-0.9-0.1-1.2-0.2
		c-0.4-0.2-0.7-0.4-1-0.7c-0.3-0.3-0.5-0.6-0.7-1s-0.2-0.8-0.2-1.2s0.1-0.9,0.2-1.2s0.4-0.7,0.7-1c0.3-0.3,0.6-0.5,1-0.7
		c0.4-0.2,0.8-0.2,1.2-0.2c0.4,0,0.9,0.1,1.2,0.2c0.4,0.2,0.7,0.4,1,0.7c0.3,0.3,0.5,0.6,0.7,1s0.2,0.8,0.2,1.2S245.1,27.6,244.9,28
		z M244.5,25.8c-0.1-0.3-0.3-0.6-0.6-0.8c-0.2-0.2-0.5-0.4-0.8-0.6s-0.7-0.2-1-0.2c-0.4,0-0.7,0.1-1,0.2c-0.3,0.1-0.6,0.3-0.8,0.6
		c-0.2,0.2-0.4,0.5-0.6,0.8c-0.1,0.3-0.2,0.7-0.2,1c0,0.4,0.1,0.7,0.2,1c0.1,0.3,0.3,0.6,0.6,0.8c0.2,0.2,0.5,0.4,0.8,0.6
		c0.3,0.1,0.7,0.2,1,0.2c0.4,0,0.7-0.1,1-0.2s0.6-0.3,0.8-0.6c0.2-0.2,0.4-0.5,0.6-0.8c0.1-0.3,0.2-0.7,0.2-1
		C244.7,26.4,244.6,26.1,244.5,25.8z M243.3,26.7c-0.1,0.2-0.3,0.3-0.5,0.3l0.7,1.4h-0.7l-0.7-1.3h-0.7v1.3h-0.6V25h1.5
		c0.1,0,0.3,0,0.4,0.1s0.3,0.1,0.4,0.2c0.1,0.1,0.2,0.2,0.2,0.3c0.1,0.1,0.1,0.3,0.1,0.5C243.5,26.3,243.4,26.6,243.3,26.7z
		 M242.7,25.7c-0.1-0.1-0.2-0.1-0.4-0.1h-0.9v1h0.9c0.2,0,0.3,0,0.4-0.1s0.2-0.2,0.2-0.4C242.9,25.9,242.8,25.8,242.7,25.7z"/>
	<path class="st3" d="M273.5,40.9c-0.5,1.5-1.2,2.8-2,3.9c-0.9,1.1-1.9,2-3.2,2.6c-1.2,0.6-2.6,0.9-4.1,0.9c-1.5,0-2.9-0.3-4.1-0.9
		s-2.3-1.5-3.2-2.6c-0.9-1.1-1.5-2.4-2-3.9c-0.5-1.5-0.7-3.2-0.7-5c0-1.8,0.2-3.5,0.7-5c0.5-1.5,1.2-2.8,2-3.9
		c0.9-1.1,1.9-2,3.2-2.6c1.2-0.6,2.6-0.9,4.1-0.9s2.9,0.3,4.1,0.9s2.3,1.5,3.2,2.6c0.9,1.1,1.5,2.4,2,3.9c0.5,1.5,0.7,3.2,0.7,5
		S274,39.4,273.5,40.9z M271,31.8c-0.4-1.2-0.9-2.3-1.6-3.2c-0.7-0.9-1.4-1.6-2.3-2s-1.9-0.7-2.9-0.7c-1,0-2,0.2-2.9,0.7
		c-0.9,0.5-1.6,1.1-2.3,2c-0.6,0.9-1.1,1.9-1.5,3.1c-0.4,1.2-0.6,2.6-0.6,4.1c0,1.5,0.2,2.9,0.6,4.1s0.9,2.3,1.5,3.2s1.4,1.6,2.3,2
		c0.9,0.5,1.9,0.7,2.9,0.7c1,0,2-0.2,2.9-0.7c0.9-0.5,1.7-1.1,2.3-2c0.6-0.9,1.1-1.9,1.5-3.1s0.6-2.6,0.6-4.1
		C271.6,34.4,271.4,33.1,271,31.8z"/>
	<path class="st3" d="M296.7,34.2c-0.4,0.9-1,1.7-1.7,2.3c-0.7,0.6-1.6,1.1-2.6,1.4c-1,0.3-2.1,0.5-3.3,0.5h-5.9V48h-2.7V23.9h9
		c1.1,0,2.1,0.1,3,0.4c0.9,0.3,1.7,0.7,2.4,1.3c0.7,0.6,1.2,1.3,1.6,2.3c0.4,0.9,0.6,2,0.6,3.2C297.3,32.2,297.1,33.3,296.7,34.2z
		 M293.3,27.6c-0.9-0.8-2.1-1.3-3.8-1.3h-6.2V36h5.9c3.6,0,5.4-1.6,5.4-4.9C294.6,29.6,294.2,28.4,293.3,27.6z"/>
	<path class="st3" d="M302.9,48V23.9h14.6v2.4h-11.9v7.6h6.9v2.4h-6.9v9.2H318V48H302.9z"/>
	<path class="st3" d="M339,48l-10.5-16.5c-0.1-0.2-0.3-0.5-0.4-0.7c-0.2-0.3-0.3-0.6-0.5-0.9c-0.2-0.3-0.3-0.6-0.5-0.8
		c-0.1-0.3-0.3-0.5-0.3-0.6v1.7V48h-2.6V23.9h2.6l10.4,16.8c0.1,0.2,0.3,0.5,0.4,0.7c0.2,0.3,0.3,0.6,0.5,0.9
		c0.2,0.3,0.3,0.6,0.5,0.8c0.1,0.3,0.3,0.5,0.3,0.6V42V23.9h2.6V48H339z"/>
	<path class="st3" d="M363.2,44.3c-0.4,0.8-0.9,1.5-1.6,2.1c-0.7,0.6-1.5,1.1-2.5,1.4c-1,0.3-2.1,0.5-3.4,0.5
		c-1.7,0-3.2-0.3-4.6-0.9c-1.4-0.6-2.6-1.4-3.5-2.4l1.8-2c0.9,0.9,1.9,1.6,3,2.1c1.1,0.5,2.2,0.8,3.4,0.8c1.6,0,2.9-0.4,3.8-1.1
		c0.9-0.7,1.4-1.7,1.4-3c0-0.6-0.1-1.1-0.3-1.5s-0.5-0.9-0.9-1.3c-0.4-0.4-1-0.8-1.8-1.2c-0.7-0.4-1.7-0.8-2.8-1.2
		c-1.3-0.5-2.4-0.9-3.3-1.4s-1.6-1-2.1-1.5s-0.9-1.1-1.2-1.8c-0.2-0.7-0.4-1.4-0.4-2.3c0-1,0.2-1.8,0.6-2.6c0.4-0.8,0.9-1.4,1.5-1.9
		c0.7-0.5,1.4-0.9,2.4-1.2s2-0.4,3.1-0.4c1.6,0,3,0.2,4.1,0.7c1.1,0.5,2.2,1.1,3.2,1.9l-1.7,2.1c-0.9-0.7-1.8-1.3-2.6-1.7
		c-0.9-0.4-1.9-0.6-3.2-0.6c-0.8,0-1.5,0.1-2.1,0.3c-0.6,0.2-1.1,0.5-1.5,0.8c-0.4,0.3-0.7,0.7-0.8,1.1c-0.2,0.4-0.3,0.9-0.3,1.4
		c0,0.5,0.1,1,0.2,1.4c0.1,0.4,0.4,0.8,0.8,1.2c0.4,0.4,1,0.8,1.7,1.1c0.7,0.4,1.7,0.8,2.9,1.2c1.3,0.5,2.4,1,3.3,1.4
		c0.9,0.5,1.6,1,2.2,1.6c0.5,0.6,0.9,1.2,1.2,1.9s0.3,1.5,0.3,2.4C363.7,42.6,363.5,43.5,363.2,44.3z"/>
	<path class="st3" d="M385,48V36.6h-12V48h-2.7V23.9h2.7v10.3h12V23.9h2.7V48H385z"/>
	<path class="st3" d="M395.2,48V23.9h2.7V48H395.2z"/>
	<path class="st3" d="M408.1,26.3v8h6.6v2.4h-6.6V48h-2.7V23.9h14.2v2.4H408.1z"/>
	<path class="st3" d="M433.6,26.3V48H431V26.3h-7.1v-2.4h16.9v2.4H433.6z"/>
	<path class="st3" d="M444.9,47.2c-0.4,0.4-1,0.7-1.5,0.7c-0.6,0-1.1-0.2-1.5-0.7c-0.4-0.4-0.7-1-0.7-1.6c0-0.6,0.2-1.1,0.7-1.6
		c0.4-0.5,1-0.7,1.5-0.7c0.6,0,1.1,0.2,1.5,0.7c0.4,0.5,0.7,1,0.7,1.6C445.6,46.2,445.4,46.8,444.9,47.2z"/>
	<path class="st3" d="M454.2,26.1c-0.4,0.4-0.8,0.5-1.3,0.5c-0.5,0-1-0.2-1.3-0.5s-0.6-0.8-0.6-1.3c0-0.5,0.2-1,0.6-1.3
		c0.4-0.4,0.8-0.5,1.3-0.5c0.5,0,0.9,0.2,1.3,0.5c0.4,0.4,0.5,0.8,0.5,1.3C454.7,25.3,454.5,25.8,454.2,26.1z M451.6,48V29.9h2.6V48
		H451.6z"/>
	<path class="st3" d="M475.2,42.9c-0.4,1.2-1,2.2-1.7,3s-1.5,1.4-2.5,1.8c-1,0.4-2,0.6-3.1,0.6c-1.1,0-2.1-0.2-3.1-0.6
		c-1-0.4-1.8-1-2.5-1.8c-0.7-0.8-1.2-1.8-1.6-2.9c-0.4-1.2-0.6-2.5-0.6-4.1s0.2-2.9,0.6-4.1c0.4-1.2,1-2.2,1.7-2.9
		c0.7-0.8,1.5-1.4,2.5-1.8c1-0.4,2-0.6,3.1-0.6c1.1,0,2.1,0.2,3.1,0.6s1.8,1,2.5,1.8c0.7,0.8,1.2,1.8,1.6,2.9c0.4,1.2,0.6,2.5,0.6,4
		C475.8,40.3,475.6,41.7,475.2,42.9z M471.8,33.5c-1-1.2-2.2-1.8-3.8-1.8s-2.8,0.6-3.8,1.8c-1,1.2-1.4,3-1.4,5.4s0.5,4.2,1.4,5.4
		c0.9,1.2,2.2,1.8,3.8,1.8s2.8-0.6,3.8-1.8s1.4-3,1.4-5.4S472.7,34.7,471.8,33.5z"/>
</g>
</svg>
