<?xml version="1.0" encoding="utf-8"?>
<!-- Generator: Adobe Illustrator 21.1.0, SVG Export Plug-In . SVG Version: 6.00 Build 0)  -->
<svg version="1.1" id="Layer_1" xmlns="http://www.w3.org/2000/svg" xmlns:xlink="http://www.w3.org/1999/xlink" x="0px" y="0px"
	 viewBox="0 0 576 216" style="enable-background:new 0 0 576 216;" xml:space="preserve">
<style type="text/css">
	.st0{fill:#A11D21;}
	.st1{fill:#CA2026;}
	.st2{fill:#801517;}
	.st3{fill:#FFFFFF;}
</style>
<path class="st0" d="M63.7,102.5l-20.9,7.6c0.3,3.4,0.8,6.7,1.7,9.9l19.9-7.2C63.6,109.4,63.4,106,63.7,102.5"/>
<path class="st0" d="M156.2,79.4c-1.5-3-3.2-5.9-5.1-8.7l-20.9,7.6c2.4,2.5,4.5,5.3,6.1,8.3L156.2,79.4z"/>
<path class="st1" d="M110.1,73.4c4.3,2,8.1,4.8,11.3,8.1l20.9-7.6c-5.8-8.1-13.7-14.9-23.4-19.4c-29.9-13.9-65.6-1-79.5,28.9
	c-4.5,9.7-6.2,20-5.4,29.9l20.9-7.6c0.3-4.5,1.5-9.1,3.5-13.4C67.5,72.8,90.7,64.4,110.1,73.4"/>
<path class="st1" d="M45.7,119.6l-19.9,7.2c1.8,7.2,5,14.1,9.3,20.3l20.9-7.6C50.7,134,47.1,127,45.7,119.6"/>
<path class="st1" d="M132.4,111.7c-0.3,4.5-1.5,9.1-3.5,13.4c-9.1,19.4-32.2,27.9-51.7,18.8c-4.4-2-8.2-4.8-11.3-8L45,143.5
	c5.8,8.1,13.7,14.9,23.3,19.4c29.9,13.9,65.6,1,79.5-29c4.5-9.7,6.2-20,5.4-29.9L132.4,111.7z"/>
<path class="st1" d="M137.6,86.1l-19.9,7.2c3.7,6.6,5.4,14.2,4.9,21.9l20.9-7.6C142.8,100.2,140.8,92.8,137.6,86.1"/>
<path class="st2" d="M63.6,106.7c0-1.4,0-2.8,0.1-4.2l-20.9,7.6c0.1,1.3,0.3,2.7,0.5,4L63.6,106.7z"/>
<path class="st2" d="M153.1,73.8c-0.7-1.1-1.3-2.1-2.1-3.2l-20.9,7.6c0.9,0.9,1.8,1.9,2.6,3L153.1,73.8z"/>
<path class="st0" d="M45,143.5c1.6,2.3,3.4,4.4,5.3,6.5l22.7-8.3c-2.7-1.7-5.1-3.6-7.2-5.8L45,143.5z M153.3,104.1l-20.9,7.6
	c-0.2,3-0.8,6-1.8,9l22.7-8.3C153.6,109.6,153.5,106.8,153.3,104.1"/>
<g>
	<g>
		<path class="st3" d="M195,96.8l-4.4-9.1h-3v9.1h-7.3V69.8h12c1.6,0,3,0.2,4.3,0.5c1.3,0.3,2.4,0.8,3.3,1.5
			c0.9,0.7,1.6,1.6,2.1,2.7c0.5,1.1,0.7,2.5,0.7,4.1c0,2-0.4,3.7-1.3,5c-0.9,1.3-2.1,2.3-3.5,2.9l5.4,10.3H195z M194.7,76.7
			c-0.5-0.5-1.3-0.8-2.5-0.8h-4.5v5.9h4.4c1.2,0,2.1-0.3,2.6-0.8c0.5-0.5,0.8-1.3,0.8-2.2C195.4,78,195.2,77.3,194.7,76.7z"/>
	</g>
	<g>
		<path class="st3" d="M209,96.8V69.8h20.6v6.3h-13.2v3.6h8v6.2h-8v4.6h13.5v6.3H209z"/>
	</g>
	<g>
		<path class="st3" d="M258.2,89.6c-0.6,1.7-1.5,3.1-2.8,4.2c-1.2,1.1-2.8,1.8-4.6,2.3c-1.8,0.5-3.9,0.7-6.3,0.7h-8.7V69.8h9.4
			c2.1,0,4,0.2,5.7,0.7c1.7,0.4,3.2,1.2,4.4,2.2c1.2,1,2.1,2.4,2.8,4.1c0.7,1.7,1,3.8,1,6.4C259.1,85.7,258.8,87.8,258.2,89.6z
			 M251.1,80.1c-0.2-0.9-0.6-1.6-1.1-2.2c-0.5-0.6-1.1-1-1.9-1.3c-0.8-0.3-1.8-0.4-2.9-0.4h-1.8v14.2h1.6c1.2,0,2.1-0.1,3-0.4
			c0.8-0.2,1.5-0.6,2-1.2c0.5-0.6,0.9-1.3,1.1-2.2c0.2-0.9,0.3-2,0.3-3.4C251.5,82,251.4,81,251.1,80.1z"/>
	</g>
	<g>
		<path class="st3" d="M294.6,96.8V86.2h-8.4v10.6h-7.6V69.8h7.6v9.8h8.4v-9.8h7.6v26.9H294.6z"/>
	</g>
	<g>
		<path class="st3" d="M326.3,96.8l-1.5-4.7h-8.1l-1.5,4.7h-8l9.8-26.9h7.5l9.8,26.9H326.3z M322.5,84.3c-0.2-0.9-0.4-1.6-0.6-2.3
			c-0.2-0.6-0.3-1.2-0.5-1.7s-0.3-1-0.4-1.4c-0.1-0.4-0.2-0.9-0.3-1.3c-0.1,0.5-0.2,0.9-0.3,1.3c-0.1,0.4-0.2,0.9-0.4,1.4
			c-0.1,0.5-0.3,1.1-0.5,1.7c-0.2,0.6-0.4,1.4-0.6,2.2l-0.5,1.8h4.5L322.5,84.3z"/>
	</g>
	<g>
		<path class="st3" d="M349.6,76.3v20.4h-7.5V76.3h-7.5v-6.5h22.6v6.5H349.6z"/>
	</g>
	<g>
		<path class="st3" d="M367.2,74.5c-0.2,0.4-0.4,0.8-0.7,1.1c-0.3,0.3-0.7,0.6-1.1,0.7c-0.4,0.2-0.9,0.3-1.4,0.3
			c-0.5,0-1-0.1-1.4-0.3c-0.4-0.2-0.8-0.4-1.1-0.7c-0.3-0.3-0.6-0.7-0.7-1.1c-0.2-0.4-0.3-0.9-0.3-1.4s0.1-1,0.3-1.4
			c0.2-0.4,0.4-0.8,0.7-1.1c0.3-0.3,0.7-0.6,1.1-0.7c0.4-0.2,0.9-0.3,1.4-0.3c0.5,0,1,0.1,1.4,0.3c0.4,0.2,0.8,0.4,1.1,0.7
			c0.3,0.3,0.6,0.7,0.7,1.1c0.2,0.4,0.3,0.9,0.3,1.4S367.3,74.1,367.2,74.5z M366.6,72c-0.1-0.4-0.4-0.7-0.6-0.9s-0.6-0.5-0.9-0.6
			c-0.4-0.1-0.7-0.2-1.1-0.2c-0.4,0-0.8,0.1-1.2,0.2c-0.4,0.1-0.7,0.4-0.9,0.6c-0.3,0.3-0.5,0.6-0.6,0.9c-0.1,0.4-0.2,0.7-0.2,1.1
			c0,0.4,0.1,0.8,0.2,1.2c0.1,0.4,0.4,0.7,0.6,0.9c0.3,0.3,0.6,0.5,0.9,0.6c0.4,0.1,0.7,0.2,1.2,0.2c0.4,0,0.8-0.1,1.1-0.2
			c0.4-0.1,0.7-0.4,0.9-0.6c0.3-0.3,0.5-0.6,0.6-0.9c0.1-0.4,0.2-0.7,0.2-1.2C366.9,72.7,366.8,72.3,366.6,72z M365.3,73
			c-0.1,0.2-0.3,0.3-0.6,0.4l0.8,1.5h-0.8l-0.7-1.5h-0.7V75h-0.6v-3.8h1.7c0.2,0,0.3,0,0.5,0.1c0.2,0,0.3,0.1,0.4,0.2
			c0.1,0.1,0.2,0.2,0.3,0.4c0.1,0.1,0.1,0.3,0.1,0.5C365.5,72.6,365.4,72.9,365.3,73z M364.7,71.9c-0.1-0.1-0.3-0.1-0.4-0.1h-1v1.1
			h1c0.2,0,0.3,0,0.4-0.1s0.2-0.2,0.2-0.4C364.9,72.1,364.8,72,364.7,71.9z"/>
	</g>
	<g>
		<path class="st3" d="M210.9,133c-0.8,2.6-2,4.8-3.4,6.6c-1.5,1.8-3.3,3.3-5.3,4.3c-2.1,1-4.4,1.6-6.9,1.6c-2.5,0-4.8-0.5-6.8-1.5
			c-2.1-1-3.8-2.5-5.3-4.3c-1.5-1.8-2.6-4-3.4-6.6c-0.8-2.5-1.2-5.3-1.2-8.4c0-3,0.4-5.8,1.2-8.4c0.8-2.6,1.9-4.8,3.4-6.6
			c1.5-1.8,3.2-3.3,5.3-4.3c2.1-1,4.4-1.6,6.9-1.6c2.5,0,4.8,0.5,6.8,1.5c2.1,1,3.8,2.5,5.3,4.3c1.5,1.8,2.6,4,3.4,6.6
			c0.8,2.5,1.2,5.3,1.2,8.4C212.1,127.7,211.7,130.5,210.9,133z M206.7,117.8c-0.6-2.1-1.5-3.8-2.6-5.3c-1.1-1.5-2.4-2.6-3.9-3.4
			c-1.5-0.8-3.1-1.2-4.9-1.2c-1.7,0-3.3,0.4-4.8,1.2c-1.5,0.8-2.8,1.9-3.8,3.3c-1.1,1.4-1.9,3.2-2.5,5.3c-0.6,2.1-0.9,4.4-0.9,6.9
			c0,2.5,0.3,4.8,1,6.9c0.6,2.1,1.5,3.8,2.6,5.3c1.1,1.5,2.4,2.6,3.9,3.4c1.5,0.8,3.1,1.2,4.9,1.2c1.7,0,3.3-0.4,4.8-1.2
			c1.5-0.8,2.8-1.9,3.9-3.3c1.1-1.4,1.9-3.2,2.5-5.3c0.6-2.1,0.9-4.4,0.9-6.9C207.6,122.2,207.3,119.9,206.7,117.8z"/>
	</g>
	<g>
		<path class="st3" d="M249.7,121.9c-0.7,1.6-1.6,2.9-2.8,3.9c-1.2,1.1-2.6,1.9-4.3,2.4c-1.7,0.5-3.5,0.8-5.5,0.8h-9.8v15.9h-4.5
			v-40.4h15.1c1.8,0,3.5,0.2,5.1,0.7c1.6,0.5,2.9,1.2,4.1,2.2c1.2,1,2.1,2.3,2.7,3.8c0.7,1.5,1,3.3,1,5.3
			C250.7,118.5,250.4,120.3,249.7,121.9z M244,110.7c-1.5-1.4-3.6-2.1-6.3-2.1h-10.4v16.3h9.9c6.1,0,9.1-2.7,9.1-8.2
			C246.2,114.1,245.5,112.1,244,110.7z"/>
	</g>
	<g>
		<path class="st3" d="M260.1,144.9v-40.4h24.4v4.1h-19.9v12.7h11.5v4.1h-11.5v15.4h20.8v4.1H260.1z"/>
	</g>
	<g>
		<path class="st3" d="M320.6,144.9L303,117.2c-0.2-0.3-0.5-0.8-0.7-1.2c-0.3-0.5-0.5-1-0.8-1.4c-0.3-0.5-0.5-0.9-0.8-1.4
			c-0.2-0.4-0.4-0.8-0.5-1v2.8v30h-4.4v-40.4h4.4l17.5,28.2c0.2,0.3,0.5,0.8,0.8,1.2c0.3,0.5,0.5,1,0.8,1.4c0.3,0.5,0.5,0.9,0.8,1.4
			c0.2,0.4,0.4,0.8,0.5,1V135v-30.5h4.4v40.4H320.6z"/>
	</g>
	<g>
		<path class="st3" d="M361.1,138.7c-0.6,1.4-1.5,2.6-2.6,3.6c-1.2,1-2.6,1.8-4.2,2.4c-1.7,0.6-3.5,0.9-5.7,0.9
			c-2.8,0-5.3-0.5-7.6-1.6c-2.3-1.1-4.3-2.4-5.9-4l3-3.3c1.5,1.5,3.2,2.6,5,3.5c1.8,0.9,3.7,1.3,5.8,1.3c2.7,0,4.8-0.6,6.4-1.8
			c1.6-1.2,2.3-2.9,2.3-5.1c0-0.9-0.2-1.8-0.5-2.5c-0.3-0.8-0.8-1.5-1.6-2.1c-0.8-0.7-1.7-1.3-3-1.9c-1.2-0.6-2.8-1.3-4.6-1.9
			c-2.2-0.8-4-1.5-5.5-2.3c-1.5-0.8-2.7-1.6-3.6-2.5c-0.9-0.9-1.6-1.9-2-3c-0.4-1.1-0.6-2.4-0.6-3.9c0-1.6,0.3-3.1,0.9-4.3
			c0.6-1.3,1.5-2.4,2.6-3.3c1.1-0.9,2.4-1.6,4-2c1.6-0.5,3.3-0.7,5.2-0.7c2.7,0,5,0.4,6.9,1.2c1.9,0.8,3.7,1.8,5.4,3.2l-2.9,3.5
			c-1.5-1.2-2.9-2.2-4.4-2.8c-1.5-0.6-3.2-1-5.3-1c-1.4,0-2.6,0.2-3.6,0.5c-1,0.3-1.8,0.8-2.5,1.3c-0.6,0.5-1.1,1.2-1.4,1.9
			c-0.3,0.7-0.4,1.5-0.4,2.3c0,0.8,0.1,1.6,0.3,2.3c0.2,0.7,0.7,1.3,1.4,2c0.7,0.6,1.7,1.3,2.9,1.9c1.3,0.6,2.9,1.3,4.9,2
			c2.2,0.8,4.1,1.6,5.6,2.4c1.5,0.8,2.7,1.7,3.6,2.7c0.9,1,1.5,2,1.9,3.2c0.4,1.2,0.6,2.5,0.6,4C362,135.8,361.7,137.3,361.1,138.7z
			"/>
	</g>
	<g>
		<path class="st3" d="M397.7,144.9v-19.1h-20.1v19.1h-4.5v-40.4h4.5v17.3h20.1v-17.3h4.5v40.4H397.7z"/>
	</g>
	<g>
		<path class="st3" d="M414.9,144.9v-40.4h4.5v40.4H414.9z"/>
	</g>
	<g>
		<path class="st3" d="M436.5,108.6V122h11.1v4.1h-11.1v18.8H432v-40.4h23.7v4.1H436.5z"/>
	</g>
	<g>
		<path class="st3" d="M479.3,108.6v36.3h-4.5v-36.3h-11.9v-4.1h28.3v4.1H479.3z"/>
	</g>
	<g>
		<path class="st3" d="M498.2,143.9c-0.7,0.7-1.6,1.1-2.6,1.1s-1.9-0.4-2.6-1.1c-0.7-0.7-1.1-1.6-1.1-2.6c0-1,0.4-1.9,1.1-2.7
			c0.7-0.8,1.6-1.2,2.6-1.2s1.9,0.4,2.6,1.2c0.7,0.8,1.1,1.7,1.1,2.7C499.3,142.3,498.9,143.1,498.2,143.9z"/>
	</g>
	<g>
		<path class="st3" d="M513.7,108.3c-0.6,0.6-1.3,0.9-2.1,0.9c-0.9,0-1.6-0.3-2.3-0.9c-0.6-0.6-0.9-1.3-0.9-2.2
			c0-0.9,0.3-1.6,0.9-2.2c0.6-0.6,1.4-0.9,2.3-0.9c0.8,0,1.5,0.3,2.1,0.9c0.6,0.6,0.9,1.3,0.9,2.2
			C514.6,106.9,514.3,107.7,513.7,108.3z M509.4,144.9v-30.3h4.4v30.3H509.4z"/>
	</g>
	<g>
		<path class="st3" d="M549,136.4c-0.7,2-1.6,3.7-2.8,5c-1.2,1.4-2.6,2.4-4.2,3.1c-1.6,0.7-3.3,1-5.2,1s-3.6-0.3-5.2-1
			c-1.6-0.7-3-1.7-4.1-3c-1.2-1.3-2.1-3-2.7-4.9c-0.7-2-1-4.2-1-6.8c0-2.6,0.3-4.8,1-6.8c0.7-2,1.6-3.6,2.8-4.9
			c1.2-1.3,2.6-2.3,4.2-3c1.6-0.7,3.3-1,5.2-1c1.8,0,3.6,0.3,5.2,1c1.6,0.7,3,1.6,4.1,2.9c1.2,1.3,2.1,2.9,2.7,4.9
			c0.7,1.9,1,4.2,1,6.8C550,132.1,549.7,134.4,549,136.4z M543.2,120.6c-1.6-2-3.7-3-6.4-3s-4.8,1-6.4,3s-2.4,5-2.4,9
			s0.8,7.1,2.4,9.1s3.7,3.1,6.4,3.1s4.8-1,6.4-3.1c1.6-2,2.4-5.1,2.4-9.1S544.8,122.6,543.2,120.6z"/>
	</g>
</g>
</svg>
