<?xml version="1.0" encoding="utf-8"?>
<!-- Generator: Adobe Illustrator 20.0.0, SVG Export Plug-In . SVG Version: 6.00 Build 0)  -->
<!DOCTYPE svg PUBLIC "-//W3C//DTD SVG 1.1//EN" "http://www.w3.org/Graphics/SVG/1.1/DTD/svg11.dtd">
<svg version="1.1" id="Layer_1" xmlns="http://www.w3.org/2000/svg" xmlns:xlink="http://www.w3.org/1999/xlink" x="0px" y="0px"
	 viewBox="0 0 300 300" style="enable-background:new 0 0 300 300;" xml:space="preserve">
<style type="text/css">
	.st0{fill:#FFFFFF;}
	.st1{fill:#95D600;}
</style>
<circle class="st0" cx="148.5" cy="149.6" r="144.1"/>
<path class="st1" d="M205.5,55.2h-114c-6.4,0-11.7,5.2-11.7,11.7v165.5c0,6.4,5.2,11.7,11.7,11.7h114c6.4,0,11.7-5.2,11.7-11.7V66.9
	C217.1,60.4,211.9,55.2,205.5,55.2z M212.3,232.4c0,3.8-3.1,6.8-6.8,6.8h-114c-3.8,0-6.8-3.1-6.8-6.8V66.9c0-3.8,3-6.8,6.8-6.8h114
	c3.8,0,6.8,3.1,6.8,6.8V232.4z M198.2,77h-18v-8.4c0-2.5-2-4.5-4.5-4.5h-54.4c-2.5,0-4.5,2-4.5,4.5V77h-18c-3.9,0-7,2.9-7,6.6v141.3
	c0,3.6,3.2,6.6,7,6.6h99.3c3.9,0,7-2.9,7-6.6V83.5C205.2,79.9,202,77,198.2,77z M120.4,77v-8.4c0-0.5,0.4-0.9,0.9-0.9h54.4
	c0.5,0,0.9,0.4,0.9,0.9V77v3.6v1.7c0,0.5-0.4,0.9-0.9,0.9h-54.4c-0.5,0-0.9-0.4-0.9-0.9v-1.7V77z M201.6,224.9
	c0,1.6-1.5,2.9-3.4,2.9H98.8c-1.9,0-3.4-1.3-3.4-2.9V83.5c0-1.6,1.5-2.9,3.4-2.9h18v1.7c0,2.5,2,4.5,4.5,4.5h54.4
	c2.5,0,4.5-2,4.5-4.5v-1.7h18c1.9,0,3.4,1.3,3.4,2.9V224.9z M195.6,111.3c0,1-0.8,1.8-1.8,1.8h-49.9c-1,0-1.8-0.8-1.8-1.8
	c0-1,0.8-1.8,1.8-1.8h49.9C194.8,109.5,195.6,110.3,195.6,111.3z M195.6,123.5c0,1-0.8,1.8-1.8,1.8h-49.9c-1,0-1.8-0.8-1.8-1.8
	c0-1,0.8-1.8,1.8-1.8h49.9C194.8,121.7,195.6,122.5,195.6,123.5z M195.6,152.2c0,1-0.8,1.8-1.8,1.8h-49.9c-1,0-1.8-0.8-1.8-1.8
	c0-1,0.8-1.8,1.8-1.8h49.9C194.8,150.4,195.6,151.2,195.6,152.2z M195.6,164.4c0,1-0.8,1.8-1.8,1.8h-49.9c-1,0-1.8-0.8-1.8-1.8
	c0-1,0.8-1.8,1.8-1.8h49.9C194.8,162.6,195.6,163.4,195.6,164.4z M195.6,193.8c0,1-0.8,1.8-1.8,1.8h-49.9c-1,0-1.8-0.8-1.8-1.8
	c0-1,0.8-1.8,1.8-1.8h49.9C194.8,192,195.6,192.8,195.6,193.8z M195.6,206c0,1-0.8,1.8-1.8,1.8h-49.9c-1,0-1.8-0.8-1.8-1.8
	c0-1,0.8-1.8,1.8-1.8h49.9C194.8,204.2,195.6,205,195.6,206z M105.2,130.2h24.5c1,0,1.8-0.8,1.8-1.8V104c0-0.1,0-0.2-0.1-0.3
	l3.3-5.6c0.7-1.2,0.3-2.6-0.8-3.3c-1.2-0.7-2.6-0.3-3.3,0.8l-3.9,6.6h-21.4c-1,0-1.8,0.8-1.8,1.8v24.4
	C103.3,129.4,104.2,130.2,105.2,130.2z M107,105.8h17.4l-6.9,11.6l-2.3-4.2c-0.6-1.2-2.1-1.6-3.3-1c-1.2,0.6-1.6,2.1-1,3.3l4.3,8
	c0,0.1,0.1,0.1,0.1,0.2c0,0.1,0.1,0.1,0.1,0.2c0.2,0.2,0.4,0.4,0.6,0.5c0,0,0,0,0,0c0,0,0,0,0,0c0.1,0,0.2,0.1,0.2,0.1
	c0.3,0.1,0.6,0.2,1,0.2h0h0l0,0c0.2,0,0.4,0,0.6-0.1c0.1,0,0.1-0.1,0.2-0.1c0.1,0,0.2-0.1,0.3-0.1c0,0,0,0,0,0
	c0.3-0.1,0.5-0.3,0.7-0.5c0-0.1,0.1-0.1,0.1-0.2c0-0.1,0.1-0.1,0.1-0.2l8.3-14v17H107V105.8z M129.6,186h-24.5c-1,0-1.8,0.8-1.8,1.8
	v24.4c0,1,0.8,1.8,1.8,1.8h24.5c1,0,1.8-0.8,1.8-1.8v-24.4C131.4,186.8,130.6,186,129.6,186z M120.8,200.1l7-7V207L120.8,200.1z
	 M124.4,189.7l-7,7l-7-7H124.4z M107,193.1l7,7l-7,7V193.1z M110.4,210.5l7-7l7,7H110.4z M133.8,135.5c-1.2-0.7-2.6-0.3-3.3,0.9
	l-4.5,7.9h-20.9c-1,0-1.8,0.8-1.8,1.8v24.4c0,1,0.8,1.8,1.8,1.8h24.5c1,0,1.8-0.8,1.8-1.8v-24.4c0-0.4-0.1-0.7-0.3-0.9l3.6-6.3
	C135.4,137.6,135,136.1,133.8,135.5z M127.8,168.7H107v-20.8h17l-6.4,11.2l-2.3-4.6c-0.6-1.2-2-1.7-3.3-1.1c-1.2,0.6-1.7,2-1.1,3.3
	l4.3,8.7c0,0.1,0.1,0.2,0.2,0.3c0,0.1,0.1,0.1,0.1,0.2c0.2,0.2,0.4,0.4,0.6,0.6c0,0,0,0,0,0c0.1,0.1,0.3,0.1,0.4,0.2
	c0.1,0,0.1,0.1,0.2,0.1c0.2,0.1,0.4,0.1,0.6,0.1h0l0,0l0,0c0.3,0,0.7-0.1,1-0.2c0,0,0.1,0,0.1,0c0,0,0,0,0,0
	c0.3-0.1,0.5-0.3,0.7-0.5c0,0,0.1-0.1,0.1-0.2c0.1-0.1,0.1-0.2,0.2-0.3l8.3-14.5V168.7z"/>
</svg>
