<?xml version="1.0" encoding="utf-8"?>
<!-- Generator: Adobe Illustrator 21.0.2, SVG Export Plug-In . SVG Version: 6.00 Build 0)  -->
<svg version="1.1" id="Layer_1" xmlns="http://www.w3.org/2000/svg" xmlns:xlink="http://www.w3.org/1999/xlink" x="0px" y="0px"
	 viewBox="0 0 1000 300" style="enable-background:new 0 0 1000 300;" xml:space="preserve">
<style type="text/css">
	.st0{fill:#D5D5D5;}
	.st1{fill:#FFFFFF;}
</style>
<polygon class="st0" points="235.5,94.8 206.3,124.1 230.6,148.4 289.1,148.4 "/>
<polygon class="st0" points="153,226 128.7,201.7 99.4,230.9 153,284.5 153,284.5 153,226 "/>
<polygon class="st1" points="230.6,148.4 153,226 153,284.5 289.1,148.4 "/>
<polygon class="st0" points="70.5,202 99.7,172.8 75.4,148.4 16.9,148.4 "/>
<polygon class="st0" points="153,70.8 177.3,95.2 206.6,65.9 153,12.3 153,12.3 153,70.8 "/>
<polygon class="st1" points="75.4,148.4 153,70.8 153,12.3 16.9,148.4 "/>
<g>
	<g>
		<path class="st1" d="M365.2,72l-8.6-17.3h-9.7V72h-9.6V23.8h22.4c9.1,0,16.6,5,16.6,15.3c0,7.2-3.1,11.8-9.2,14.2l9.2,18.7H365.2z
			 M359.5,33.2h-12.6v12.4h12.6c4.5,0,6.9-2.1,6.9-6.3C366.4,35,363.7,33.2,359.5,33.2z"/>
		<path class="st1" d="M386.4,72V23.8h33.4v9.4H396v8.3h13.8V51H396v11.6h24.8V72H386.4z"/>
		<path class="st1" d="M445.5,72h-14.4V23.8h15.1c13.8,0,23.9,6.5,23.9,24.1C470.2,64.9,457.9,72,445.5,72z M445.9,33.2h-5.1v29.5
			h4.8c10.1,0,14.7-5.9,14.7-14.7C460.2,38.1,456,33.2,445.9,33.2z"/>
		<path class="st1" d="M529.1,72V51.8h-19.8V72h-9.6V23.8h9.6v18.4h19.8V23.8h9.6V72H529.1z"/>
		<path class="st1" d="M583.2,72l-3.8-10.7h-17.6L558.1,72h-10.3l18.4-48.2h9.4L593.8,72H583.2z M573.1,43.4c-1-2.8-1.9-5.7-2.4-7.5
			c-0.5,1.8-1.4,4.7-2.4,7.5l-3.1,8.7h11L573.1,43.4z"/>
		<path class="st1" d="M616.6,33.3V72H607V33.3h-13.8v-9.5h37.3v9.5H616.6z"/>
	</g>
	<g>
		<path class="st1" d="M359.2,171.7h-21.9V98.2h23c21,0,36.5,9.9,36.5,36.7C396.7,160.8,378,171.7,359.2,171.7z M359.7,112.5h-7.8
			v44.9h7.2c15.4,0,22.4-9,22.4-22.4C381.6,120,375.2,112.5,359.7,112.5z"/>
		<path class="st1" d="M409.3,171.7V98.2h51v14.4H424v12.7h21.1v14.3H424v17.7h37.9v14.4H409.3z"/>
		<path class="st1" d="M509.5,171.7h-14.3l-26.1-73.4h16.3l13.8,42.5c1.4,4.1,2.8,9.4,3.5,12.1c0.6-2.7,2-7.8,3.4-12.1l13.5-42.5h16
			L509.5,171.7z"/>
		<path class="st1" d="M547.1,171.7V98.2h51v14.4h-36.3v12.7h21.1v14.3h-21.1v17.7h37.9v14.4H547.1z"/>
		<path class="st1" d="M613.2,171.7V98.2h14.7v58.9h36.8v14.5H613.2z"/>
		<path class="st1" d="M701.3,172.8c-20,0-31.9-15.5-31.9-37.9s11.8-37.9,31.9-37.9c20,0,31.9,15.5,31.9,37.9
			S721.3,172.8,701.3,172.8z M701.3,111.7c-11.9,0-16.8,10.2-16.8,23.3s4.9,23.3,16.8,23.3c11.9,0,16.8-10.2,16.8-23.3
			S713.1,111.7,701.3,111.7z"/>
		<path class="st1" d="M776.9,145.7h-16.2v26h-14.7V98.2h32.1c13.8,0,25.3,7.7,25.3,23.3C803.5,138.5,792.1,145.7,776.9,145.7z
			 M777.7,112.5h-16.9v18.9h17.1c6.8,0,10.5-3.1,10.5-9.5C788.3,115.4,784.2,112.5,777.7,112.5z"/>
		<path class="st1" d="M815.3,171.7V98.2h51v14.4H830v12.7h21.1v14.3H830v17.7h37.9v14.4H815.3z"/>
		<path class="st1" d="M924,171.7l-13.1-26.4h-14.8v26.4h-14.7V98.2h34.2c13.8,0,25.3,7.7,25.3,23.3c0,11-4.7,17.9-14.1,21.6
			l14.1,28.5H924z M915.3,112.5h-19.2v18.9h19.2c6.8,0,10.5-3.1,10.5-9.5C925.8,115.2,921.8,112.5,915.3,112.5z"/>
	</g>
	<g>
		<path class="st1" d="M368.1,245.3h-16.2v26h-14.7v-73.4h32.1c13.8,0,25.3,7.7,25.3,23.3C394.6,238.2,383.3,245.3,368.1,245.3z
			 M368.8,212.2h-16.9V231H369c6.8,0,10.5-3.1,10.5-9.5C379.5,215.1,375.3,212.2,368.8,212.2z"/>
		<path class="st1" d="M449.1,271.3l-13.1-26.4h-14.8v26.4h-14.7v-73.4h34.2c13.8,0,25.3,7.7,25.3,23.3c0,11-4.7,17.9-14.1,21.6
			l14.1,28.5H449.1z M440.3,212.2h-19.2V231h19.2c6.8,0,10.5-3.1,10.5-9.5C450.8,214.9,446.9,212.2,440.3,212.2z"/>
		<path class="st1" d="M507.3,272.5c-20,0-31.9-15.5-31.9-37.9s11.9-37.9,31.9-37.9c20,0,31.9,15.5,31.9,37.9
			S527.3,272.5,507.3,272.5z M507.3,211.3c-11.9,0-16.8,10.2-16.8,23.3c0,13.1,4.9,23.3,16.8,23.3c11.9,0,16.8-10.2,16.8-23.3
			C524,221.5,519.1,211.3,507.3,211.3z"/>
		<path class="st1" d="M580.3,272.5c-19.2,0-32.1-14.7-32.1-37.9c0-22.3,13.4-37.9,32.6-37.9c15,0,23,7,27.8,18.4l-13.9,5.8
			c-2.7-5.5-6.1-9.5-14.1-9.5c-11,0-17.3,9.6-17.3,23.3c0,13.5,6.4,23.5,17.4,23.5c10.1,0,13.5-4.7,14.4-11.1h-11.6v-13.7h26.3v9.7
			C609.7,261.8,597.3,272.5,580.3,272.5z"/>
		<path class="st1" d="M665.8,271.3l-13.1-26.4h-14.8v26.4h-14.7v-73.4h34.2c13.8,0,25.3,7.7,25.3,23.3c0,11-4.7,17.9-14.1,21.6
			l14.1,28.5H665.8z M657,212.2h-19.2V231H657c6.8,0,10.5-3.1,10.5-9.5C667.5,214.9,663.6,212.2,657,212.2z"/>
		<path class="st1" d="M743.3,271.3l-5.8-16.4h-26.8l-5.8,16.4h-15.7l28.1-73.4h14.3l27.9,73.4H743.3z M727.7,227.7
			c-1.5-4.3-2.9-8.7-3.7-11.4c-0.7,2.7-2.2,7.1-3.7,11.4l-4.7,13.3h16.8L727.7,227.7z"/>
		<path class="st1" d="M825,271.3v-27c0-4,0.2-13.3,0.2-16.2c-1,2.7-3.3,8-5.1,12.2L805.2,273l-14.9-32.6c-1.9-4.2-4.1-9.4-5.1-12.2
			c0,2.8,0.2,12.2,0.2,16.2v27H771v-73.4h14.2l15.3,33.2c1.9,4.1,4.1,9.6,5,12.3c0.9-2.7,3-8.1,4.9-12.3l14.8-33.2h14.5v73.4H825z"
			/>
	</g>
</g>
<g>
	<path class="st1" d="M648.4,32.2c-0.3,0.8-0.8,1.4-1.3,2c-0.6,0.6-1.2,1-2,1.3c-0.8,0.3-1.6,0.5-2.5,0.5c-0.9,0-1.7-0.2-2.5-0.5
		c-0.8-0.3-1.4-0.8-2-1.3c-0.6-0.6-1-1.2-1.3-2c-0.3-0.8-0.5-1.6-0.5-2.5s0.2-1.7,0.5-2.5s0.8-1.4,1.3-2c0.6-0.6,1.2-1,2-1.3
		c0.8-0.3,1.6-0.5,2.5-0.5c0.9,0,1.7,0.2,2.5,0.5c0.8,0.3,1.4,0.8,2,1.3c0.6,0.6,1,1.2,1.3,2c0.3,0.8,0.5,1.6,0.5,2.5
		S648.7,31.4,648.4,32.2z M647.4,27.7c-0.3-0.6-0.6-1.2-1.1-1.7c-0.5-0.5-1-0.8-1.7-1.1c-0.6-0.3-1.3-0.4-2.1-0.4
		c-0.7,0-1.4,0.1-2.1,0.4c-0.6,0.3-1.2,0.6-1.7,1.1c-0.5,0.5-0.8,1-1.1,1.7c-0.3,0.6-0.4,1.3-0.4,2.1c0,0.7,0.1,1.4,0.4,2.1
		c0.3,0.6,0.6,1.2,1.1,1.7c0.5,0.5,1,0.8,1.7,1.1c0.6,0.3,1.3,0.4,2.1,0.4c0.7,0,1.4-0.1,2.1-0.4c0.6-0.3,1.2-0.6,1.7-1.1
		c0.5-0.5,0.8-1,1.1-1.7c0.3-0.6,0.4-1.3,0.4-2.1C647.8,29,647.7,28.3,647.4,27.7z M645,29.6c-0.3,0.3-0.6,0.6-1.1,0.7l1.4,2.7H644
		l-1.3-2.6h-1.3V33h-1.2v-6.8h3c0.3,0,0.6,0,0.8,0.1c0.3,0.1,0.5,0.2,0.7,0.4c0.2,0.2,0.4,0.4,0.5,0.6c0.1,0.3,0.2,0.6,0.2,0.9
		C645.4,28.8,645.3,29.2,645,29.6z M644,27.6c-0.2-0.2-0.5-0.2-0.8-0.2h-1.8v1.9h1.8c0.3,0,0.6-0.1,0.8-0.2c0.2-0.2,0.3-0.4,0.3-0.7
		C644.3,28,644.2,27.7,644,27.6z"/>
</g>
</svg>
