<?xml version="1.0" encoding="utf-8"?>
<!-- Generator: Adobe Illustrator 20.0.0, SVG Export Plug-In . SVG Version: 6.00 Build 0)  -->
<!DOCTYPE svg PUBLIC "-//W3C//DTD SVG 1.1//EN" "http://www.w3.org/Graphics/SVG/1.1/DTD/svg11.dtd">
<svg version="1.1" id="Layer_1" xmlns="http://www.w3.org/2000/svg" xmlns:xlink="http://www.w3.org/1999/xlink" x="0px" y="0px"
	 viewBox="0 0 300 300" style="enable-background:new 0 0 300 300;" xml:space="preserve">
<style type="text/css">
	.st0{fill:#FFFFFF;}
	.st1{fill:#95D600;}
</style>
<circle class="st0" cx="148.4" cy="151.3" r="144.1"/>
<g>
	<path class="st1" d="M217.3,143.1c1.5-1.5,35.6-37.4,23.7-56.6c-9.2-14.8-39.7-5.5-57.7,1.6c-1.1-0.9-2.4-1.4-3.9-1.4H90.2
		c-3.5,0-6.3,2.8-6.3,6.3v62.5l0,0c-1.2,1.2-30.6,29.7-30.6,51c0,8.2,4.3,13.9,12.2,16.2c2.7,0.8,6.1,1.3,10.3,1.3
		c8.7,0,20.9-2.3,38-9.3c1,0.8,2.3,1.2,3.7,1.2h89.2c3.5,0,6.3-2.8,6.3-6.3v-27.5h0.1v-2H213v-30.3h0.1v-2H213v-0.1
		C215.8,144.8,217.3,143.2,217.3,143.1z M165.7,114v-10.3h27.5c1.7,0,3.2,1.4,3.2,3.2v7.2H165.7z M179.5,149.7h24.8
		c-5.8,5.5-14.1,12.9-24.8,21V149.7z M152.2,89.8h27.2c1.7,0,3.2,1.4,3.2,3.2v7.5h-30.4V89.8z M152.2,184l0.7-1.9h10.7
		c-5.2,3.5-10.9,7.1-16.8,10.6v-10.6h0.7l-0.7,1.9H152.2z M153.6,180.1l1.5-4.3h13.8l0.8,2.1c-1,0.7-2,1.4-3.1,2.1H153.6z
		 M156.7,171.1l2.8-7.9c0.2-0.6,0.5-1.3,0.7-2.1c0.2-0.8,0.5-1.6,0.7-2.3c0.2-0.7,0.4-1.4,0.6-2.1c0.2-0.6,0.3-1.1,0.4-1.5
		c0.1,0.4,0.3,0.9,0.5,1.5c0.2,0.6,0.4,1.3,0.7,2.1c0.2,0.8,0.5,1.5,0.8,2.3c0.3,0.8,0.5,1.5,0.7,2.1l2.8,8H156.7z M148.3,180.1
		h-1.5v-30.3h12.4L148.3,180.1z M133.4,114v-10.3h30.3V114H133.4z M119.8,89.8h30.3v10.7h-30.3V89.8z M87,93c0-1.7,1.4-3.2,3.2-3.2
		h27.6v10.7H104c-3.5,0-6.3,2.8-6.3,6.3v13.8H87V93z M100.8,166.6v-30.5h10.3v30.5H100.8z M111.2,168.6v30.6H104
		c-1.7,0-3.2-1.4-3.2-3.2v-27.4H111.2z M87,122.6h10.7v30.2H87V122.6z M87,158.9C87,158.8,87.1,158.8,87,158.9L87,158.9v-4h10.7
		v30.5h-7.5c-1.7,0-3.2-1.4-3.2-3.2V158.9z M66.8,218.2c-6-1.7-8.9-5.6-8.9-11.7c0-15.4,18.4-36.4,26-44.4v20.1
		c0,3.5,2.8,6.3,6.3,6.3h7.5v7.5c0,3.5,2.8,6.3,6.3,6.3h7.2v7.2c0,0.4,0,0.8,0.1,1.1C87.6,220.4,74.2,220.4,66.8,218.2z
		 M111.2,120.3v13.8h-10.3v-27.3c0-1.7,1.4-3.2,3.2-3.2h27.3V114h-13.8C114,114,111.2,116.8,111.2,120.3z M144.8,212.7h-26.5
		c3.2-1.4,6.5-3,10-4.7c5.7-2.8,11.2-5.8,16.4-8.8V212.7z M144.8,193.9c-5.8,3.4-12,6.7-18.5,10c-4.2,2.1-8.2,3.9-11.9,5.5v-27.3
		h30.4V193.9z M144.8,180.1h-30.4v-30.3h30.4V180.1z M144.8,147.7h-30.4v-27.4c0-1.7,1.4-3.2,3.2-3.2h27.3V147.7z M177.4,212.7
		h-30.7v-14.6c9-5.2,17.1-10.5,24.5-15.6l0.6,1.6h5.5l-0.7-1.9h0.7V212.7z M177.4,180.1H176l-0.3-0.8c0.6-0.4,1.2-0.9,1.8-1.3V180.1
		z M177.4,172.3c-1.1,0.8-2.2,1.7-3.4,2.5l-9.1-25.1h12.5V172.3z M177.4,147.7h-30.7v-30.5h30.7V147.7z M209.9,209.5
		c0,1.7-1.4,3.2-3.2,3.2h-27.3v-30.6h30.4V209.5z M209.9,180.1h-30.4v-3.5c13.8-10.3,24.1-19.6,30.4-25.8V180.1z M209.9,144.2
		c-1,1-2.1,2.2-3.5,3.5h-26.9v-30.5h27.3c1.7,0,3.2,1.4,3.2,3.2V144.2z M206.7,114h-7.2v-7.2c0-3.5-2.8-6.3-6.3-6.3h-7.5V93
		c0-0.3,0-0.6-0.1-0.8c11.7-4.6,43.7-15.7,51.4-3.3c8.3,13.5-13.9,41.4-23.2,51.1c0,0-0.3,0.4-0.8,0.9v-20.6
		C213,116.8,210.2,114,206.7,114z"/>
	<circle class="st1" cx="194.5" cy="124.2" r="2.5"/>
	<circle class="st1" cx="186.1" cy="124.2" r="2.5"/>
	<circle class="st1" cx="202.8" cy="124.2" r="2.5"/>
</g>
</svg>
