<svg xmlns="http://www.w3.org/2000/svg" viewBox="0 0 55.5 50.98"><defs><style>.cls-1{fill:#a21d21;}.cls-2{fill:#cb2026;}.cls-3{fill:#811517;}</style></defs><title>openshift-io-favicon</title><g id="Layer_2" data-name="Layer 2"><g id="Layer_1-2" data-name="Layer 1"><path class="cls-1" d="M16.1,22.91l-8.9,3.2a30.67,30.67,0,0,0,.7,4.2l8.5-3.1a15.6,15.6,0,0,1-.3-4.3"/><path class="cls-1" d="M55.5,13a20,20,0,0,0-2.2-3.7l-8.9,3.3a21.14,21.14,0,0,1,2.6,3.5Z"/><path class="cls-2" d="M35.9,10.51a15.41,15.41,0,0,1,4.8,3.4l8.9-3.2a24.73,24.73,0,0,0-10-8.3A25.4,25.4,0,0,0,5.8,14.71a25.84,25.84,0,0,0-2.3,12.7l8.9-3.2a14.64,14.64,0,0,1,1.5-5.7,16.52,16.52,0,0,1,22-8"/><path class="cls-2" d="M8.5,30.11,0,33.21a25,25,0,0,0,4,8.6l8.9-3.2a16.24,16.24,0,0,1-4.4-8.5"/><path class="cls-2" d="M45.4,26.81a14.64,14.64,0,0,1-1.5,5.7,16.52,16.52,0,0,1-22,8,15.41,15.41,0,0,1-4.8-3.4l-8.9,3.2a25.1,25.1,0,0,0,9.9,8.3A25.63,25.63,0,0,0,52,36.31a25.84,25.84,0,0,0,2.3-12.7Z"/><path class="cls-2" d="M47.6,15.91,39.1,19a16.78,16.78,0,0,1,2.1,9.3l8.9-3.2a24.23,24.23,0,0,0-2.5-9.2"/><path class="cls-3" d="M16.1,24.61v-1.8L7.2,26a9.85,9.85,0,0,0,.2,1.7Z"/><path class="cls-3" d="M54.2,10.61a14.63,14.63,0,0,0-.9-1.3l-8.9,3.3a6.89,6.89,0,0,1,1.1,1.3Z"/><path class="cls-1" d="M8.2,40.31a20.11,20.11,0,0,0,2.3,2.8l9.7-3.5a14.79,14.79,0,0,1-3.1-2.5Zm46.1-16.8-8.9,3.3a12.28,12.28,0,0,1-.8,3.8l9.7-3.5a21.64,21.64,0,0,0,0-3.6"/></g></g></svg>