<svg xmlns="http://www.w3.org/2000/svg" viewBox="0 0 403.56 92.15"><defs><style>.cls-1{fill:#a30000;}.cls-2{fill:#c00;}.cls-3{fill:#820000;}.cls-4{fill:#fff;}</style></defs><title>OpenShift-io_logo</title><g id="Layer_2" data-name="Layer 2"><g id="Layer_1-2" data-name="Layer 1"><path class="cls-1" d="M29.14,41.32,13,47.19a46.81,46.81,0,0,0,1.28,7.63l15.31-5.57a30,30,0,0,1-.47-7.93"/><path class="cls-1" d="M100.34,23.51a46,46,0,0,0-3.93-6.67L80.3,22.71A30,30,0,0,1,85,29.08Z"/><path class="cls-2" d="M64.9,18.95a29.74,29.74,0,0,1,8.7,6.2l16.11-5.86A46,46,0,0,0,6.32,49.63l16.11-5.86A29.85,29.85,0,0,1,64.9,18.95"/><path class="cls-2" d="M15.31,54.46,0,60a46.64,46.64,0,0,0,7.2,15.6l16.08-5.85a30.08,30.08,0,0,1-8-15.33"/><path class="cls-2" d="M82.07,48.38a29.46,29.46,0,0,1-2.71,10.34A30,30,0,0,1,39.59,73.2,29.65,29.65,0,0,1,30.87,67L14.8,72.87a45.65,45.65,0,0,0,18,15A46.14,46.14,0,0,0,94,65.55a45.58,45.58,0,0,0,4.15-23Z"/><path class="cls-2" d="M86,28.71,70.73,34.29a30.05,30.05,0,0,1,3.75,16.85L90.55,45.3A46.46,46.46,0,0,0,86,28.71"/><path class="cls-3" d="M29.08,44.56a29.41,29.41,0,0,1,.06-3.24L13,47.19c.08,1,.21,2.06.37,3.08Z"/><path class="cls-3" d="M98,19.27c-.51-.82-1-1.64-1.6-2.43L80.3,22.71a27.15,27.15,0,0,1,2,2.28Z"/><path class="cls-1" d="M14.8,72.87a45.84,45.84,0,0,0,4.1,5l17.5-6.38A29.6,29.6,0,0,1,30.87,67ZM98.15,42.53,82.07,48.38a29.46,29.46,0,0,1-1.36,6.92l17.5-6.38a45.61,45.61,0,0,0-.06-6.38"/><path class="cls-4" d="M130.27,36.93l-3.39-7h-2.32v7h-5.63V16.19h9.27a13.75,13.75,0,0,1,3.3.37,7,7,0,0,1,2.56,1.17,5.23,5.23,0,0,1,1.65,2.09,7.62,7.62,0,0,1,.58,3.13,6.65,6.65,0,0,1-1,3.82A6.38,6.38,0,0,1,132.55,29l4.16,7.91ZM130,21.49a2.58,2.58,0,0,0-2-.62h-3.48V25.4H128a2.81,2.81,0,0,0,2-.59,2.32,2.32,0,0,0,.6-1.72A2.25,2.25,0,0,0,130,21.49Z"/><path class="cls-4" d="M141,36.93V16.19h15.88V21H146.73V23.8h6.13v4.74h-6.13V32.1h10.4v4.83Z"/><path class="cls-4" d="M178.9,31.37a7.48,7.48,0,0,1-2.13,3.23,8.62,8.62,0,0,1-3.51,1.78,19.16,19.16,0,0,1-4.84.55h-6.73V16.19h7.26a18,18,0,0,1,4.41.5,8,8,0,0,1,3.36,1.7,7.83,7.83,0,0,1,2.13,3.16,13.66,13.66,0,0,1,.76,4.89A14.85,14.85,0,0,1,178.9,31.37Zm-5.44-7.3a4,4,0,0,0-.81-1.69,3.31,3.31,0,0,0-1.48-1,7.08,7.08,0,0,0-2.25-.31H167.5V32h1.24a8.09,8.09,0,0,0,2.28-.28,3.46,3.46,0,0,0,1.56-.92,3.72,3.72,0,0,0,.87-1.69,10.75,10.75,0,0,0,.27-2.59A10.52,10.52,0,0,0,173.47,24.07Z"/><path class="cls-4" d="M207,36.93V28.75h-6.46v8.18h-5.87V16.19h5.87v7.56H207V16.19h5.87V36.93Z"/><path class="cls-4" d="M231.32,36.93l-1.13-3.64H224l-1.13,3.64h-6.16l7.53-20.74H230l7.53,20.74Zm-2.9-9.57q-.27-1-.47-1.75l-.37-1.33q-.16-.59-.28-1.08t-.21-1q-.09.53-.21,1t-.28,1.1l-.37,1.33-.47,1.72-.39,1.36h3.44Z"/><path class="cls-4" d="M249.28,21.19V36.93h-5.75V21.19h-5.81v-5h17.36v5Z"/><path class="cls-4" d="M262.79,19.78a2.57,2.57,0,0,1-1.41,1.41,2.85,2.85,0,0,1-2.12,0,2.57,2.57,0,0,1-1.41-1.41,2.86,2.86,0,0,1,0-2.12,2.57,2.57,0,0,1,1.41-1.41,2.85,2.85,0,0,1,2.12,0,2.57,2.57,0,0,1,1.41,1.41,2.85,2.85,0,0,1,0,2.12Zm-.4-1.94a2.16,2.16,0,0,0-1.19-1.19,2.4,2.4,0,0,0-1.77,0,2.17,2.17,0,0,0-1.19,1.19,2.39,2.39,0,0,0,0,1.77,2.18,2.18,0,0,0,1.19,1.19,2.4,2.4,0,0,0,1.77,0,2.17,2.17,0,0,0,1.19-1.19,2.39,2.39,0,0,0,0-1.77Zm-1,.82a.87.87,0,0,1-.45.3l.6,1.18h-.58L260.36,19h-.56v1.13h-.5V17.21h1.28a1.28,1.28,0,0,1,.37.05.84.84,0,0,1,.3.16.77.77,0,0,1,.21.27.93.93,0,0,1,.08.4A.88.88,0,0,1,261.36,18.65Zm-.46-.86a.53.53,0,0,0-.33-.1h-.77v.83h.77a.54.54,0,0,0,.33-.1.43.43,0,0,0,0-.63Z"/><path class="cls-4" d="M142.49,64.83a15.51,15.51,0,0,1-2.64,5.09,12.23,12.23,0,0,1-4.11,3.33,12.31,12.31,0,0,1-10.56,0A11.83,11.83,0,0,1,121.11,70a15.46,15.46,0,0,1-2.6-5.07,21.65,21.65,0,0,1-.91-6.44,21.38,21.38,0,0,1,.93-6.47,15.74,15.74,0,0,1,2.62-5.09,12,12,0,0,1,4.09-3.33,12.31,12.31,0,0,1,10.56,0,11.85,11.85,0,0,1,4.07,3.31,15.8,15.8,0,0,1,2.62,5.07,22.79,22.79,0,0,1,0,12.91Zm-3.27-11.69a13.19,13.19,0,0,0-2-4.09,9.06,9.06,0,0,0-3-2.62,8,8,0,0,0-3.78-.91,7.78,7.78,0,0,0-3.71.91,8.88,8.88,0,0,0-3,2.58,12.84,12.84,0,0,0-2,4,18.49,18.49,0,0,0-.71,5.31,18,18,0,0,0,.73,5.31,13.49,13.49,0,0,0,2,4.09,8.83,8.83,0,0,0,3,2.62,8,8,0,0,0,3.78.91,7.9,7.9,0,0,0,3.73-.91,8.81,8.81,0,0,0,3-2.58,12.87,12.87,0,0,0,2-4,18.54,18.54,0,0,0,.71-5.31A18,18,0,0,0,139.22,53.14Z"/><path class="cls-4" d="M172.38,56.25a8.46,8.46,0,0,1-2.16,3,9.1,9.1,0,0,1-3.33,1.84,14,14,0,0,1-4.27.62h-7.56V74H151.6V42.85h11.65a13.3,13.3,0,0,1,3.93.56,8.6,8.6,0,0,1,3.13,1.71A8,8,0,0,1,172.4,48a11.41,11.41,0,0,1,0,8.22ZM168,47.63A6.79,6.79,0,0,0,163.11,46h-8V58.59h7.6q7,0,7-6.31A6.14,6.14,0,0,0,168,47.63Z"/><path class="cls-4" d="M180.4,74V42.85h18.8V46H183.87v9.78h8.89v3.16h-8.89V70.81h16V74Z"/><path class="cls-4" d="M227,74,213.42,52.68q-.27-.4-.58-1l-.62-1.11-.6-1a7.24,7.24,0,0,1-.42-.8V74h-3.38V42.85h3.38l13.47,21.69q.27.4.58,1l.62,1.11q.31.56.6,1a7.35,7.35,0,0,1,.42.8V42.85h3.38V74Z"/><path class="cls-4" d="M258.16,69.21a7.57,7.57,0,0,1-2,2.76,9.84,9.84,0,0,1-3.24,1.82,13.19,13.19,0,0,1-4.36.67,14.07,14.07,0,0,1-5.89-1.22,15.33,15.33,0,0,1-4.56-3.09l2.31-2.58a15.79,15.79,0,0,0,3.82,2.71,9.79,9.79,0,0,0,4.45,1,7.71,7.71,0,0,0,4.91-1.42,4.71,4.71,0,0,0,1.8-3.91,5.23,5.23,0,0,0-.36-2,4.35,4.35,0,0,0-1.22-1.64,11.56,11.56,0,0,0-2.29-1.49A29.11,29.11,0,0,0,248,59.39a31,31,0,0,1-4.24-1.8,11.52,11.52,0,0,1-2.76-2,6.33,6.33,0,0,1-1.51-2.33,8.73,8.73,0,0,1-.47-3,7.55,7.55,0,0,1,.71-3.33,7.41,7.41,0,0,1,2-2.51,8.6,8.6,0,0,1,3.07-1.58,14,14,0,0,1,4-.53,14.18,14.18,0,0,1,5.31.89,16.77,16.77,0,0,1,4.16,2.44L256,48.41a13.73,13.73,0,0,0-3.4-2.16,10.28,10.28,0,0,0-4.07-.73,8.92,8.92,0,0,0-2.76.38,5.55,5.55,0,0,0-1.89,1,3.72,3.72,0,0,0-1.07,1.44,4.62,4.62,0,0,0-.33,1.76,5.38,5.38,0,0,0,.27,1.76,3.74,3.74,0,0,0,1.07,1.51A9.63,9.63,0,0,0,246,54.81a37.35,37.35,0,0,0,3.8,1.56,32.71,32.71,0,0,1,4.31,1.87,10.82,10.82,0,0,1,2.78,2,6.61,6.61,0,0,1,1.49,2.44,9.71,9.71,0,0,1,.44,3.07A8.56,8.56,0,0,1,258.16,69.21Z"/><path class="cls-4" d="M286.32,74V59.3H270.85V74h-3.47V42.85h3.47V56.14h15.47V42.85h3.47V74Z"/><path class="cls-4" d="M299.52,74V42.85H303V74Z"/><path class="cls-4" d="M316.18,46V56.32h8.53v3.16h-8.53V74h-3.47V42.85H331V46Z"/><path class="cls-4" d="M349.12,46V74h-3.47V46h-9.16V42.85h21.78V46Z"/><path class="cls-4" d="M363.7,73.18a2.84,2.84,0,0,1-4.84-2,2.88,2.88,0,0,1,.84-2,2.69,2.69,0,0,1,4,0,2.88,2.88,0,0,1,.84,2A2.73,2.73,0,0,1,363.7,73.18Z"/><path class="cls-4" d="M375.63,45.76a2.22,2.22,0,0,1-1.62.69,2.4,2.4,0,0,1-1.73-.69,2.24,2.24,0,0,1-.71-1.67,2.29,2.29,0,0,1,.71-1.71A2.4,2.4,0,0,1,374,41.7a2.22,2.22,0,0,1,1.62.69,2.33,2.33,0,0,1,.69,1.71A2.27,2.27,0,0,1,375.63,45.76ZM372.27,74V50.63h3.38V74Z"/><path class="cls-4" d="M402.76,67.41a11.64,11.64,0,0,1-2.18,3.87,9,9,0,0,1-3.24,2.38,10.48,10.48,0,0,1-8,0,8.57,8.57,0,0,1-3.18-2.31,11.31,11.31,0,0,1-2.11-3.8,16.15,16.15,0,0,1-.78-5.24,15.73,15.73,0,0,1,.8-5.24,11.18,11.18,0,0,1,2.18-3.8,9.17,9.17,0,0,1,3.24-2.33,10,10,0,0,1,4-.8,10.39,10.39,0,0,1,4,.76,8.48,8.48,0,0,1,3.18,2.27,11.11,11.11,0,0,1,2.11,3.76,17.84,17.84,0,0,1,0,10.49Zm-4.44-12.12a6,6,0,0,0-4.92-2.3,6,6,0,0,0-4.9,2.3q-1.84,2.3-1.84,6.94t1.84,7a6.27,6.27,0,0,0,9.81,0q1.86-2.37,1.86-7T398.32,55.29Z"/></g></g></svg>